<svg xmlns="http://www.w3.org/2000/svg" width="854" height="1043" viewBox="0 0 853.708 1043.080" fill="none">
  <path transform="translate(309.854 407.540)" d="M154.927 227.586L37.8 203.77L0 89.9082L79.2606 0L196.225 24.2334L233.843 138.244Z" fill="#FDE68A" fill-opacity="0.25"/>
  <path transform="translate(154.927 269.862)" d="M154.927 227.586L37.8 203.77L0 89.9082L79.2606 0L196.225 24.2334L233.843 138.244Z" fill="#FDE68A" fill-opacity="0.25"/>
  <path transform="translate(351.315 203.770)" d="M154.927 227.586L37.8 203.77L0 89.9082L79.2606 0L196.225 24.2334L233.843 138.244Z" fill="#FDE68A" fill-opacity="0.25"/>
  <path transform="translate(271.988 293.816)" d="M154.927 227.586L37.8 203.77L0 89.9082L79.2606 0L196.225 24.2334L233.843 138.244Z" fill="#FDE68A" fill-opacity="0.25"/>
  <path transform="translate(464.781 545.218)" d="M154.927 227.586L37.8 203.77L0 89.9082L79.2606 0L196.225 24.2334L233.843 138.244Z" fill="#FDE68A" fill-opacity="0.25"/>
  <path transform="translate(268.393 611.310)" d="M154.927 227.586L37.8 203.77L0 89.9082L79.2606 0L196.225 24.2334L233.843 138.244Z" fill="#FDE68A" fill-opacity="0.25"/>
  <path transform="translate(347.720 521.264)" d="M154.927 227.586L37.8 203.77L0 89.9082L79.2606 0L196.225 24.2334L233.843 138.244Z" fill="#FDE68A" fill-opacity="0.25"/>
  <path transform="translate(0.000 132.184)" d="M154.927 227.586L37.8 203.77L0 89.9082L79.2606 0L196.225 24.2334L233.843 138.244Z" fill="#FDE68A" fill-opacity="0.25"/>
  <path transform="translate(196.388 66.092)" d="M154.927 227.586L37.8 203.77L0 89.9082L79.2606 0L196.225 24.2334L233.843 138.244Z" fill="#FDE68A" fill-opacity="0.25"/>
  <path transform="translate(117.061 156.138)" d="M154.927 227.586L37.8 203.77L0 89.9082L79.2606 0L196.225 24.2334L233.843 138.244Z" fill="#FDE68A" fill-opacity="0.25"/>
  <path transform="translate(113.466 473.632)" d="M154.927 227.586L37.8 203.77L0 89.9082L79.2606 0L196.225 24.2334L233.843 138.244Z" fill="#FDE68A" fill-opacity="0.25"/>
  <path transform="translate(192.793 383.586)" d="M154.927 227.586L37.8 203.77L0 89.9082L79.2606 0L196.225 24.2334L233.843 138.244Z" fill="#FDE68A" fill-opacity="0.25"/>
  <path transform="translate(392.775 0.000)" d="M154.927 227.586L37.8 203.77L0 89.9082L79.2606 0L196.225 24.2334L233.843 138.244Z" fill="#FDE68A" fill-opacity="0.25"/>
  <path transform="translate(313.448 90.046)" d="M154.927 227.586L37.8 203.77L0 89.9082L79.2606 0L196.225 24.2334L233.843 138.244Z" fill="#FDE68A" fill-opacity="0.25"/>
  <path transform="translate(506.242 341.448)" d="M154.927 227.586L37.8 203.77L0 89.9082L79.2606 0L196.225 24.2334L233.843 138.244Z" fill="#FDE68A" fill-opacity="0.25"/>
  <path transform="translate(389.181 317.494)" d="M154.927 227.586L37.8 203.77L0 89.9082L79.2606 0L196.225 24.2334L233.843 138.244Z" fill="#FDE68A" fill-opacity="0.25"/>
  <path transform="translate(234.121 180.092)" d="M154.927 227.586L37.8 203.77L0 89.9082L79.2606 0L196.225 24.2334L233.843 138.244Z" fill="#FDE68A" fill-opacity="0.25"/>
  <path transform="translate(426.915 431.494)" d="M154.927 227.586L37.8 203.77L0 89.9082L79.2606 0L196.225 24.2334L233.843 138.244Z" fill="#FDE68A" fill-opacity="0.25"/>
  <path transform="translate(230.527 497.586)" d="M154.927 227.586L37.8 203.77L0 89.9082L79.2606 0L196.225 24.2334L233.843 138.244Z" fill="#FDE68A" fill-opacity="0.25"/>
  <path transform="translate(619.708 682.896)" d="M154.927 227.586L37.8 203.77L0 89.9082L79.2606 0L196.225 24.2334L233.843 138.244Z" fill="#FDE68A" fill-opacity="0.25"/>
  <path transform="translate(423.320 748.988)" d="M154.927 227.586L37.8 203.77L0 89.9082L79.2606 0L196.225 24.2334L233.843 138.244Z" fill="#FDE68A" fill-opacity="0.25"/>
  <path transform="translate(502.647 658.942)" d="M154.927 227.586L37.8 203.77L0 89.9082L79.2606 0L196.225 24.2334L233.843 138.244Z" fill="#FDE68A" fill-opacity="0.25"/>
  <path transform="translate(226.933 815.080)" d="M154.927 227.586L37.8 203.77L0 89.9082L79.2606 0L196.225 24.2334L233.843 138.244Z" fill="#FDE68A" fill-opacity="0.25"/>
  <path transform="translate(306.260 725.034)" d="M154.927 227.586L37.8 203.77L0 89.9082L79.2606 0L196.225 24.2334L233.843 138.244Z" fill="#FDE68A" fill-opacity="0.25"/>
  <path transform="translate(385.587 634.988)" d="M154.927 227.586L37.8 203.77L0 89.9082L79.2606 0L196.225 24.2334L233.843 138.244Z" fill="#FDE68A" fill-opacity="0.25"/>
</svg>
