<svg xmlns="http://www.w3.org/2000/svg" viewBox="0 0 1024 560" fill="none" preserveAspectRatio="xMidYMid slice">
  <path transform="translate(277.454 -22.653) scale(0.6200)" d="M154.927 227.586L37.8 203.77L0 89.9082L79.2606 0L196.225 24.2334L233.843 138.244Z" fill="#FDE68A" fill-opacity="0.25"/>
  <path transform="translate(247.636 123.898) scale(0.6200)" d="M154.927 227.586L37.8 203.77L0 89.9082L79.2606 0L196.225 24.2334L233.843 138.244Z" fill="#FDE68A" fill-opacity="0.25"/>
  <path transform="translate(388.878 76.365) scale(0.6200)" d="M154.927 227.586L37.8 203.77L0 89.9082L79.2606 0L196.225 24.2334L233.843 138.244Z" fill="#FDE68A" fill-opacity="0.25"/>
  <path transform="translate(359.059 222.916) scale(0.6200)" d="M154.927 227.586L37.8 203.77L0 89.9082L79.2606 0L196.225 24.2334L233.843 138.244Z" fill="#FDE68A" fill-opacity="0.25"/>
  <path transform="translate(329.241 369.467) scale(0.6200)" d="M154.927 227.586L37.8 203.77L0 89.9082L79.2606 0L196.225 24.2334L233.843 138.244Z" fill="#FDE68A" fill-opacity="0.25"/>
  <path transform="translate(500.301 175.382) scale(0.6200)" d="M154.927 227.586L37.8 203.77L0 89.9082L79.2606 0L196.225 24.2334L233.843 138.244Z" fill="#FDE68A" fill-opacity="0.25"/>
  <path transform="translate(470.483 321.934) scale(0.6200)" d="M154.927 227.586L37.8 203.77L0 89.9082L79.2606 0L196.225 24.2334L233.843 138.244Z" fill="#FDE68A" fill-opacity="0.25"/>
  <path transform="translate(440.664 468.485) scale(0.6200)" d="M154.927 227.586L37.8 203.77L0 89.9082L79.2606 0L196.225 24.2334L233.843 138.244Z" fill="#FDE68A" fill-opacity="0.25"/>
  <path transform="translate(611.725 274.400) scale(0.6200)" d="M154.927 227.586L37.8 203.77L0 89.9082L79.2606 0L196.225 24.2334L233.843 138.244Z" fill="#FDE68A" fill-opacity="0.25"/>
  <path transform="translate(581.906 420.952) scale(0.6200)" d="M154.927 227.586L37.8 203.77L0 89.9082L79.2606 0L196.225 24.2334L233.843 138.244Z" fill="#FDE68A" fill-opacity="0.25"/>
  <path transform="translate(552.088 567.503) scale(0.6200)" d="M154.927 227.586L37.8 203.77L0 89.9082L79.2606 0L196.225 24.2334L233.843 138.244Z" fill="#FDE68A" fill-opacity="0.25"/>
  <path transform="translate(693.330 519.970) scale(0.6200)" d="M154.927 227.586L37.8 203.77L0 89.9082L79.2606 0L196.225 24.2334L233.843 138.244Z" fill="#FDE68A" fill-opacity="0.25"/>
  <path transform="translate(663.511 666.521) scale(0.6200)" d="M154.927 227.586L37.8 203.77L0 89.9082L79.2606 0L196.225 24.2334L233.843 138.244Z" fill="#FDE68A" fill-opacity="0.25"/>
  <path transform="translate(410.846 615.037) scale(0.6200)" d="M154.927 227.586L37.8 203.77L0 89.9082L79.2606 0L196.225 24.2334L233.843 138.244Z" fill="#FDE68A" fill-opacity="0.25"/>
  <path transform="translate(522.269 714.054) scale(0.6200)" d="M154.927 227.586L37.8 203.77L0 89.9082L79.2606 0L196.225 24.2334L233.843 138.244Z" fill="#FDE68A" fill-opacity="0.25"/>
</svg>
