<svg width="160" height="212" viewBox="0 0 160 212" fill="none" xmlns="http://www.w3.org/2000/svg">
<path d="M6.62777 100.994C2.6631 113.806 16.3163 131.234 33.1595 138.549C42.778 142.727 69.6334 143.56 71.9937 132.399C74.3541 121.238 49.1929 98.4431 36.3807 93.4332C28.5412 90.3677 11.465 85.3612 6.62777 100.994Z" fill="#CDF0F6" fill-opacity="0.65"/>
<ellipse cx="88.692" cy="206.956" rx="35.818" ry="4.54832" fill="#C28858"/>
<path d="M140.092 121.175C135.156 130.038 128.261 127.375 125.331 124.826C121.75 125.219 121.58 132.176 122.373 136.146C122.443 136.494 122.588 136.82 122.785 137.115L126.324 142.423C126.76 143.078 127.438 143.547 128.217 143.659C137.908 145.055 144.83 138.533 147.515 134.462C147.779 134.06 148.114 133.712 148.521 133.457L149.771 132.675C151.216 131.772 151.62 129.849 150.66 128.441L145.424 120.762C144.578 119.521 142.946 119.097 141.604 119.768L141.454 119.843C140.873 120.134 140.408 120.608 140.092 121.175Z" fill="#1A1A1A"/>
<path d="M125.311 124.809C128.23 127.363 135.145 130.058 140.092 121.175C140.408 120.608 140.873 120.134 141.454 119.843L141.604 119.768C142.946 119.097 144.578 119.521 145.424 120.762L150.66 128.441C151.62 129.849 151.216 131.772 149.771 132.675L148.521 133.457C148.114 133.712 147.779 134.06 147.515 134.462C144.83 138.533 137.908 145.055 128.217 143.659C127.438 143.547 126.76 143.078 126.324 142.423L122.785 137.115C122.588 136.82 122.443 136.494 122.373 136.146C121.557 132.06 121.76 124.809 125.654 124.809" stroke="black" stroke-width="5"/>
<path d="M105.606 199.936C110.576 194.063 113.325 180.914 112.948 175.078C106.623 167.398 96.0058 174.523 92.6173 179.041C92.6173 187.173 94.8763 195.23 96.0058 198.242C99.1684 205.019 103.724 202.195 105.606 199.936Z" fill="#2C2626" stroke="black" stroke-width="5"/>
<path d="M53.8027 170.736L60.9504 178.903L42.5725 181.966L53.8027 170.736Z" fill="#2C2626" stroke="black" stroke-width="5"/>
<path d="M100.404 186.925C134.39 170.437 128.076 150.216 124.688 124.803C99.7998 130.279 72.4412 122.583 66.7238 118.452C46.9952 133.982 46.7588 154.941 49.0124 165.464C59.4864 194.984 87.9876 191.352 100.404 186.925Z" fill="#2C2626" stroke="black" stroke-width="5"/>
<path d="M54.0932 64.119C42.3465 95.2929 57.4817 113.252 66.5176 118.335C90.9146 132.792 117.721 126.617 128.075 121.723C149.309 113.139 151.677 97.7961 148.633 88.6652C147.504 85.2767 146.374 84.1472 146.374 77.3703C145.019 50.7143 125.251 40.7761 115.65 38.1407C79.0549 26.394 59.3642 50.5651 54.0932 64.119Z" fill="#FDE68A" stroke="black" stroke-width="5"/>
<ellipse cx="88.771" cy="81.3232" rx="8.47118" ry="11.2949" fill="#281E1F"/>
<ellipse cx="125.373" cy="80.1941" rx="7.90643" ry="11.2949" fill="#281E1F"/>
<circle cx="91.0298" cy="76.2405" r="2.82373" fill="white"/>
<circle cx="127.066" cy="75.1111" r="2.82373" fill="white"/>
<path d="M102.219 101.654C103.913 98.8306 111.255 92.0536 118.032 98.8306" stroke="black" stroke-width="5" stroke-linecap="round"/>
<path d="M71.263 111.82C43.5905 89.7945 63.5168 55.3597 75 43.5C60.5425 50.7287 53.2075 68.1459 51.5132 76.8054C47.5437 113.514 75.2162 123.867 89.8995 125.373C120.622 129.44 138.656 115.396 143.55 108.431C111.021 130.117 83.6711 120.291 71.263 111.82Z" fill="#FBB800"/>
<path d="M85.9472 96.5715C85.9472 99.3786 83.1235 101.654 77.4761 101.654C72.7976 101.654 69.0049 99.9599 69.0049 96.5715C69.0049 93.183 72.7976 91.4888 77.4761 91.4888C82.1546 91.4888 85.9472 93.183 85.9472 96.5715Z" fill="#FA9C90"/>
<path d="M146.938 95.4418C146.938 98.2489 144.114 100.525 138.467 100.525C133.788 100.525 129.996 98.8303 129.996 95.4418C129.996 92.0534 133.788 90.3591 138.467 90.3591C143.145 90.3591 146.938 92.0534 146.938 95.4418Z" fill="#FA9C90"/>
<path d="M88.7708 43.3981C86.06 47.0125 83.8763 44.9041 83.1233 43.3981L82.5586 28.7148C82.5586 14.5961 88.206 9.03592 90.465 6.12494C96.6772 -0.652004 99.8775 -0.463756 101.76 0.477486C110.344 6.35084 103.454 13.4666 96.6772 17.9846C87.6413 24.7615 87.8296 35.8682 88.7708 43.3981Z" fill="#1A1A1A"/>
<path d="M117.253 43.9999C113.234 46.0637 112.193 43.2123 112.175 41.5287L118.092 28.0786C124.271 15.3835 131.147 12.8681 135.087 11.2262C143.638 7.85095 146.433 9.42061 147.714 11.0907C152.863 20.1282 143.554 23.5116 135.483 24.6085C124.393 26.7481 119.702 36.8173 117.253 43.9999Z" fill="#1A1A1A"/>
<path d="M124.245 134.409C99.599 150.631 71.2897 134.789 60.4283 127.632C58.651 129.422 54.4413 136.677 53.6514 140.057C84.4583 161.527 113.948 156.615 124.809 149.657C125.939 145.139 125.429 136.795 124.245 134.409Z" fill="#FDE68A"/>
<path d="M120.788 165.596C91.423 178.332 63.7505 168.566 51.7613 151.875C51.5713 151.61 51.1913 151.597 51.0507 151.89C49.9226 154.248 50.3435 160.356 50.8154 162.589C50.8239 162.629 50.8372 162.666 50.8555 162.703C61.4208 183.88 99.2661 183.39 111.205 176.918C112.016 176.478 112.714 175.873 113.363 175.218C116.618 171.93 119.855 168.503 121.353 166.199C121.603 165.815 121.208 165.413 120.788 165.596Z" fill="#FDE68A"/>
<path d="M81.1703 124.434C80.2145 132.461 75.2155 129.683 73.6753 127.109C73.3781 126.613 72.792 126.263 72.2355 126.422L61.9766 129.353C61.6239 129.454 61.351 129.746 61.283 130.107C59.0605 141.886 70.1156 146.998 76.0876 147.024C91.685 147.091 94.0595 135.76 94.7242 130.646C95.149 127.379 99.4431 127.754 99.8069 127.258C104.604 120.722 98.8294 119.891 97.548 118.222C96.3691 116.686 96.7833 114.833 97.548 114.269C101.182 111.585 99.9433 109.111 98.6775 108.621C93.7405 106.709 87.9467 119.915 86.9636 116.31C85.2693 110.098 80.7858 112.506 81.1703 114.833C81.9347 119.459 81.5632 121.135 81.1703 124.434Z" fill="#1A1A1A" stroke="black" stroke-width="5"/>
<path d="M74.0816 203.318C69.1118 197.444 68.6224 184.305 68.9988 178.469C75.324 170.788 83.6822 177.904 87.0707 182.422C87.0707 190.554 84.8117 198.611 83.6822 201.623C80.5196 208.4 75.964 205.577 74.0816 203.318Z" fill="#2C2626" stroke="black" stroke-width="5"/>
<path d="M135.671 103.392C135.962 103.236 136.294 103.252 136.567 103.497L142.294 108.64C142.665 108.974 142.599 109.557 142.15 109.799L137.729 112.172C137.246 112.431 136.685 112.127 136.602 111.654L135.297 104.138C135.24 103.809 135.383 103.546 135.671 103.392Z" fill="#D9D9D9" stroke="black" stroke-width="3"/>
<path d="M137.304 116.338C136.4 114.983 135.93 113.666 135.708 112.569C135.426 111.167 136.687 110.236 138.025 109.73C138.119 109.694 138.21 109.657 138.297 109.617C140.234 108.75 142.813 107.203 144.214 108.797C144.671 109.316 145.011 109.793 145.21 110.126L156.446 130.457C156.855 131.198 157.091 132.035 157.013 132.878C156.483 138.629 152.323 138.473 149.362 137.3C148.468 136.946 147.795 136.216 147.347 135.366L137.304 116.338Z" fill="#F76F57" stroke="black" stroke-width="3"/>
<path d="M146.528 111.571C147.561 110.89 148.574 110.906 149.757 111.558C151.058 112.277 152.414 113.734 153.465 115.623C154.481 117.45 154.913 119.327 154.811 120.735C154.713 122.094 154.192 122.682 153.556 122.934C152.195 123.472 151.081 123.371 150.089 122.869C149.014 122.325 147.868 121.195 146.823 119.317C145.699 117.295 145.065 115.49 145.02 114.125C144.999 113.48 145.112 113.017 145.29 112.679C145.458 112.356 145.758 112.003 146.358 111.673L146.445 111.626L146.528 111.571Z" fill="#2F2724" stroke="black" stroke-width="5"/>
<mask id="path-26-inside-1_406_2354" fill="white">
<path d="M150.223 82.4528C150.223 94.9289 140.109 105.043 127.633 105.043C115.157 105.043 105.043 94.9289 105.043 82.4528C105.043 69.9768 115.157 59.863 127.633 59.863C140.109 59.863 150.223 69.9768 150.223 82.4528ZM109.958 82.4528C109.958 92.2144 117.871 100.128 127.633 100.128C137.394 100.128 145.308 92.2144 145.308 82.4528C145.308 72.6913 137.394 64.7781 127.633 64.7781C117.871 64.7781 109.958 72.6913 109.958 82.4528Z"/>
</mask>
<path d="M150.223 82.4528C150.223 94.9289 140.109 105.043 127.633 105.043C115.157 105.043 105.043 94.9289 105.043 82.4528C105.043 69.9768 115.157 59.863 127.633 59.863C140.109 59.863 150.223 69.9768 150.223 82.4528ZM109.958 82.4528C109.958 92.2144 117.871 100.128 127.633 100.128C137.394 100.128 145.308 92.2144 145.308 82.4528C145.308 72.6913 137.394 64.7781 127.633 64.7781C117.871 64.7781 109.958 72.6913 109.958 82.4528Z" fill="#D9D9D9" stroke="black" stroke-width="4" mask="url(#path-26-inside-1_406_2354)"/>
<circle cx="127.632" cy="82.4527" r="17.8218" fill="white" fill-opacity="0.5" stroke="black" stroke-width="0.5"/>
</svg>
