<svg width="160" height="184" viewBox="0 0 160 184" fill="none" xmlns="http://www.w3.org/2000/svg">
<path d="M32.5463 78.8425C29.6802 77.1453 25.3702 74.9705 21.2377 74.5403C19.214 74.3297 17.3638 74.5524 15.7683 75.3382C14.2027 76.1093 12.6706 77.5258 11.4243 80.0875C9.53495 83.9711 10.157 89.4605 13.1231 95.3056C16.0496 101.072 21.0303 106.682 26.8949 110.456C30.0029 112.456 36.6595 114.548 43.0099 115.039C46.158 115.282 49.0096 115.112 51.173 114.467C53.3345 113.823 54.452 112.83 54.894 111.662C55.3711 110.401 55.2154 108.187 53.9736 104.995C52.7788 101.924 50.7656 98.427 48.3003 94.9375C43.3271 87.8982 36.8947 81.4174 32.5463 78.8425Z" fill="#CDF0F6" fill-opacity="0.65" stroke="#28899A" stroke-width="5"/>
<ellipse cx="81.9667" cy="179.58" rx="31.2528" ry="3.96861" fill="#C28858"/>
<path d="M127.454 79.7624C130.32 78.0652 134.63 75.8904 138.762 75.4602C140.786 75.2496 142.636 75.4724 144.232 76.2581C145.797 77.0292 147.329 78.4457 148.576 81.0075C150.465 84.891 149.843 90.3804 146.877 96.2255C143.95 101.992 138.97 107.602 133.105 111.376C129.997 113.376 123.341 115.468 116.99 115.958C113.842 116.202 110.99 116.032 108.827 115.387C106.666 114.743 105.548 113.75 105.106 112.582C104.629 111.321 104.785 109.107 106.026 105.915C107.221 102.844 109.234 99.3469 111.7 95.8575C116.673 88.8181 123.105 82.3373 127.454 79.7624Z" fill="#CDF0F6" fill-opacity="0.65" stroke="#28899A" stroke-width="5"/>
<path d="M70.9848 178.544C62.3601 183.145 58.3997 167.458 57.1232 155.92C56.8905 153.817 58.9247 152.246 60.9354 152.904L74.9833 157.502C76.2584 157.92 77.1109 159.136 76.9948 160.473C76.2644 168.88 73.513 175.093 71.8709 177.714C71.6547 178.059 71.344 178.353 70.9848 178.544Z" fill="#2C2626" stroke="black" stroke-width="2"/>
<path d="M92.4674 178.544C101.092 183.145 105.052 167.458 106.329 155.92C106.562 153.817 104.527 152.246 102.517 152.904L88.4688 157.502C87.1938 157.92 86.3412 159.136 86.4573 160.473C87.1878 168.88 89.9391 175.093 91.5813 177.714C91.7974 178.059 92.1081 178.353 92.4674 178.544Z" fill="#2C2626" stroke="black" stroke-width="2"/>
<mask id="path-6-inside-1_391_2455" fill="white">
<path d="M53.167 96.2375C55.0134 94.5781 57.7883 95.0231 59.1094 96.8997H107.214L112.312 111.847C117.205 118.444 118.259 129.371 118.429 134.01C118.429 154.221 96.5085 165.966 77.6475 163.905C63.3867 161.433 51.0811 155.408 46.7158 142.769C44.8947 144.837 42.4419 145.372 40.9355 145.345C40.4989 145.337 40.0965 145.22 39.7627 145.076C37.5017 144.102 36.0299 142.937 35.251 141.607C34.4497 140.238 34.4587 138.827 34.8896 137.573C35.2159 136.625 35.3571 135.488 35.2266 134.452C35.0953 133.412 34.7061 132.578 34.083 132.071C30.0897 128.82 28.057 124.855 27.4092 122.647C27.3485 122.44 27.3118 122.232 27.292 122.035C26.5489 114.619 30.516 108.937 35.6523 104.889C40.3635 101.176 46.1684 98.7405 50.6309 97.4602V96.8997H52.376C52.4861 96.8333 52.589 96.7571 52.6836 96.6721L53.167 96.2375ZM47.5967 118.259C46.2713 118.562 45.408 118.802 44.8711 118.981C45.4349 120.32 45.9226 121.539 46.3496 122.657C46.6952 121.183 47.1107 119.694 47.5967 118.259Z"/>
</mask>
<path d="M53.167 96.2375C55.0134 94.5781 57.7883 95.0231 59.1094 96.8997H107.214L112.312 111.847C117.205 118.444 118.259 129.371 118.429 134.01C118.429 154.221 96.5085 165.966 77.6475 163.905C63.3867 161.433 51.0811 155.408 46.7158 142.769C44.8947 144.837 42.4419 145.372 40.9355 145.345C40.4989 145.337 40.0965 145.22 39.7627 145.076C37.5017 144.102 36.0299 142.937 35.251 141.607C34.4497 140.238 34.4587 138.827 34.8896 137.573C35.2159 136.625 35.3571 135.488 35.2266 134.452C35.0953 133.412 34.7061 132.578 34.083 132.071C30.0897 128.82 28.057 124.855 27.4092 122.647C27.3485 122.44 27.3118 122.232 27.292 122.035C26.5489 114.619 30.516 108.937 35.6523 104.889C40.3635 101.176 46.1684 98.7405 50.6309 97.4602V96.8997H52.376C52.4861 96.8333 52.589 96.7571 52.6836 96.6721L53.167 96.2375ZM47.5967 118.259C46.2713 118.562 45.408 118.802 44.8711 118.981C45.4349 120.32 45.9226 121.539 46.3496 122.657C46.6952 121.183 47.1107 119.694 47.5967 118.259Z" fill="#2C2626"/>
<path d="M53.167 96.2375L49.8248 92.5187L49.8242 92.5192L53.167 96.2375ZM59.1094 96.8997L55.0209 99.7779L56.5146 101.9H59.1094V96.8997ZM107.214 96.8997L111.946 95.2857L110.791 91.8997H107.214V96.8997ZM112.312 111.847L107.579 113.461L107.831 114.199L108.296 114.826L112.312 111.847ZM118.429 134.01H123.429V133.918L123.425 133.827L118.429 134.01ZM77.6475 163.905L76.7935 168.831L76.9482 168.858L77.1042 168.875L77.6475 163.905ZM46.7158 142.769L51.4419 141.137L48.6383 133.019L42.9631 139.465L46.7158 142.769ZM40.9355 145.345L40.8441 150.344L40.8443 150.344L40.9355 145.345ZM39.7627 145.076L37.7837 149.668L37.7846 149.668L39.7627 145.076ZM35.251 141.607L30.9362 144.133L30.9365 144.134L35.251 141.607ZM34.8896 137.573L30.1613 135.948L30.1611 135.948L34.8896 137.573ZM35.2266 134.452L40.1873 133.827L40.1873 133.827L35.2266 134.452ZM34.083 132.071L37.2402 128.193L37.2397 128.193L34.083 132.071ZM27.4092 122.647L22.6113 124.054L22.6114 124.054L27.4092 122.647ZM27.292 122.035L22.3169 122.534L22.317 122.535L27.292 122.035ZM35.6523 104.889L32.5575 100.962L32.5574 100.962L35.6523 104.889ZM50.6309 97.4602L52.0098 102.266L55.6309 101.227V97.4602H50.6309ZM50.6309 96.8997V91.8997H45.6309V96.8997H50.6309ZM52.376 96.8997V101.9H53.7661L54.9567 101.182L52.376 96.8997ZM52.6836 96.6721L56.0252 100.391L56.0263 100.39L52.6836 96.6721ZM47.5967 118.259L52.3326 119.862L55.1997 111.394L46.4837 113.384L47.5967 118.259ZM44.8711 118.981L43.2929 114.236L38.1663 115.942L40.2629 120.921L44.8711 118.981ZM46.3496 122.657L41.6786 124.441L47.4958 139.676L51.2176 123.799L46.3496 122.657ZM53.167 96.2375L56.5092 99.9564C56.2917 100.152 55.9752 100.237 55.7053 100.203C55.4702 100.173 55.2089 100.045 55.0209 99.7779L59.1094 96.8997L63.1979 94.0214C60.2316 89.8079 54.0012 88.7653 49.8248 92.5187L53.167 96.2375ZM59.1094 96.8997V101.9H107.214V96.8997V91.8997H59.1094V96.8997ZM107.214 96.8997L102.482 98.5136L107.579 113.461L112.312 111.847L117.044 110.233L111.946 95.2857L107.214 96.8997ZM112.312 111.847L108.296 114.826C110.127 117.295 111.421 120.876 112.255 124.722C113.071 128.488 113.354 132.07 113.432 134.193L118.429 134.01L123.425 133.827C123.333 131.311 123.005 127.11 122.028 122.604C121.069 118.178 119.389 112.996 116.327 108.868L112.312 111.847ZM118.429 134.01H113.429C113.429 142.089 109.108 148.653 102.345 153.144C95.5037 157.687 86.484 159.841 78.1908 158.934L77.6475 163.905L77.1042 168.875C87.6719 170.03 99.0428 167.341 107.877 161.475C116.789 155.556 123.429 146.142 123.429 134.01H118.429ZM77.6475 163.905L78.5014 158.978C64.806 156.604 54.8942 151.132 51.4419 141.137L46.7158 142.769L41.9898 144.401C47.2681 159.684 61.9674 166.261 76.7935 168.831L77.6475 163.905ZM46.7158 142.769L42.9631 139.465C42.662 139.807 42.3106 140.026 41.94 140.166C41.541 140.316 41.1858 140.349 41.0267 140.346L40.9355 145.345L40.8443 150.344C43.3993 150.391 47.4305 149.523 50.4685 146.073L46.7158 142.769ZM40.9355 145.345L41.027 140.346C41.4128 140.353 41.6609 140.45 41.7408 140.484L39.7627 145.076L37.7846 149.668C38.5321 149.99 39.585 150.321 40.8441 150.344L40.9355 145.345ZM39.7627 145.076L41.7417 140.485C40.0002 139.734 39.5987 139.137 39.5655 139.08L35.251 141.607L30.9365 144.134C32.4612 146.737 35.0031 148.47 37.7837 149.668L39.7627 145.076ZM35.251 141.607L39.5657 139.08C39.5584 139.068 39.5672 139.08 39.578 139.116C39.5887 139.151 39.5955 139.189 39.5978 139.224C39.6024 139.296 39.5857 139.293 39.6181 139.199L34.8896 137.573L30.1611 135.948C29.3424 138.33 29.2749 141.296 30.9362 144.133L35.251 141.607ZM34.8896 137.573L39.618 139.199C40.1723 137.587 40.4209 135.681 40.1873 133.827L35.2266 134.452L30.2658 135.078C30.2933 135.296 30.2594 135.663 30.1613 135.948L34.8896 137.573ZM35.2266 134.452L40.1873 133.827C39.9547 131.983 39.1766 129.77 37.2402 128.193L34.083 132.071L30.9259 135.948C30.5834 135.669 30.4055 135.38 30.3258 135.213C30.2497 135.053 30.2549 134.991 30.2659 135.078L35.2266 134.452ZM34.083 132.071L37.2397 128.193C34.0832 125.623 32.5898 122.544 32.2069 121.239L27.4092 122.647L22.6114 124.054C23.5242 127.165 26.0962 132.016 30.9263 135.948L34.083 132.071ZM27.4092 122.647L32.2071 121.24C32.2458 121.372 32.2606 121.473 32.267 121.536L27.292 122.035L22.317 122.535C22.3629 122.992 22.4513 123.508 22.6113 124.054L27.4092 122.647ZM27.292 122.035L32.2671 121.537C31.759 116.465 34.3481 112.283 38.7472 108.816L35.6523 104.889L32.5574 100.962C26.6839 105.591 21.3389 112.773 22.3169 122.534L27.292 122.035ZM35.6523 104.889L38.7472 108.816C42.7997 105.622 47.958 103.429 52.0098 102.266L50.6309 97.4602L49.252 92.6541C44.3788 94.0522 37.9272 96.7301 32.5575 100.962L35.6523 104.889ZM50.6309 97.4602H55.6309V96.8997H50.6309H45.6309V97.4602H50.6309ZM50.6309 96.8997V101.9H52.376V96.8997V91.8997H50.6309V96.8997ZM52.376 96.8997L54.9567 101.182C55.3369 100.953 55.6946 100.688 56.0252 100.391L52.6836 96.6721L49.342 92.9528C49.4834 92.8257 49.6354 92.7135 49.7953 92.6171L52.376 96.8997ZM52.6836 96.6721L56.0263 100.39L56.5097 99.9559L53.167 96.2375L49.8242 92.5192L49.3408 92.9538L52.6836 96.6721ZM47.5967 118.259L46.4837 113.384C45.08 113.705 44.0438 113.987 43.2929 114.236L44.8711 118.981L46.4493 123.725C46.7722 123.618 47.4626 123.418 48.7097 123.134L47.5967 118.259ZM44.8711 118.981L40.2629 120.921C40.8055 122.21 41.2721 123.377 41.6786 124.441L46.3496 122.657L51.0207 120.874C50.573 119.701 50.0643 118.43 49.4793 117.04L44.8711 118.981ZM46.3496 122.657L51.2176 123.799C51.5316 122.459 51.9045 121.127 52.3326 119.862L47.5967 118.259L42.8608 116.656C42.3169 118.262 41.8589 119.907 41.4816 121.516L46.3496 122.657Z" fill="black" mask="url(#path-6-inside-1_391_2455)"/>
<path d="M44.8578 56.7372C35.5416 81.8028 47.5451 96.2428 54.7114 100.33C74.0603 111.954 95.3203 106.989 103.532 103.054C120.372 96.1519 120.915 81.4419 120.468 75.0847C118.979 53.9524 110.866 42.9639 97.5284 36.9435C68.982 24.0579 49.0381 45.8391 44.8578 56.7372Z" fill="#F8E026" stroke="black" stroke-width="5"/>
<path d="M107.207 95.2359C126.133 79.9501 112.205 50.7622 101.5 42C112.205 48.7005 116.696 59.1703 117.919 67.0047C119.278 72.159 120.468 84.6322 114.351 93.2912C112.312 96.212 105.074 102.672 92.4314 105.146C71.5313 108.754 51.1073 102.04 45.5 84C68.9489 114.925 98.7208 101.115 107.207 95.2359Z" fill="#F0B223"/>
<path d="M63.8845 84.0138C63.8845 86.5757 61.3357 88.6526 56.2382 88.6526C52.0152 88.6526 48.5918 87.1063 48.5918 84.0138C48.5918 80.9213 52.0152 79.375 56.2382 79.375C60.4611 79.375 63.8845 80.9213 63.8845 84.0138Z" fill="#FA9C90"/>
<path d="M114.86 82.983C114.86 85.545 112.311 87.6218 107.214 87.6218C102.991 87.6218 99.5674 86.0756 99.5674 82.983C99.5674 79.8905 102.991 78.3442 107.214 78.3442C111.437 78.3442 114.86 79.8905 114.86 82.983Z" fill="#FA9C90"/>
<path d="M93.2047 39.8539C90.076 42.4987 88.5929 40.1693 88.2425 38.674L90.7804 25.5109C93.6977 12.9676 99.8089 9.20768 102.395 7.09346C109.254 2.37058 112.027 3.20646 113.487 4.43599C119.816 11.4475 112.291 16.3299 105.403 18.9278C96.0633 23.0607 93.9336 32.9675 93.2047 39.8539Z" fill="black"/>
<path d="M66.3725 39.8539C69.5012 42.4987 70.9842 40.1693 71.3347 38.674L68.7968 25.5109C65.8794 12.9676 59.7682 9.20768 57.1818 7.09346C50.323 2.37058 47.55 3.20646 46.0904 4.43599C39.7615 11.4475 47.2858 16.3299 54.174 18.9278C63.5139 23.0607 65.6436 32.9675 66.3725 39.8539Z" fill="black"/>
<ellipse cx="64.3944" cy="69.5817" rx="6.62685" ry="8.76217" fill="#281E1F"/>
<ellipse cx="99.0575" cy="69.5817" rx="6.62685" ry="8.76217" fill="#281E1F"/>
<ellipse cx="66.4336" cy="66.4895" rx="2.54879" ry="2.57711" fill="white"/>
<ellipse cx="97.0185" cy="66.4895" rx="2.54879" ry="2.57711" fill="white"/>
<path d="M74.0801 81.4368C76.6289 84.5293 82.2362 88.8588 88.3533 81.4368" stroke="black" stroke-width="5" stroke-linecap="round"/>
<path d="M129.051 99.0569C123.922 102.863 115.792 103.084 110.805 102.551C109.56 102.418 108.319 102.975 107.68 104.052L106.105 106.707C105.83 107.171 105.685 107.7 105.685 108.238V115.203C105.685 116.141 106.124 117.026 106.872 117.593L109.236 119.386C109.583 119.649 109.981 119.837 110.41 119.914C117.028 121.112 131.325 120.248 138.819 110.278C140.291 110.509 141.811 110.465 143.132 110.313C144.729 110.13 145.677 108.548 145.325 106.98L141.559 90.2271C141.434 89.6709 141.482 89.0934 141.627 88.5421C142.633 84.7235 140.906 81.7156 139.632 80.3905C139.438 80.1881 139.194 80.0306 138.936 79.9205C133.59 77.6408 132.832 82.9628 133.282 87.556C133.439 89.1599 132.347 90.7348 131.444 92.0698C130.549 93.3929 130.208 95.2155 130.138 96.7031C130.095 97.61 129.78 98.5159 129.051 99.0569Z" fill="#2C2626"/>
<path d="M133.721 107.415C135.809 110.43 140.022 110.671 143.132 110.313C144.729 110.13 145.677 108.548 145.325 106.98L141.559 90.2271C141.434 89.6709 141.482 89.0934 141.627 88.5421C142.633 84.7235 140.906 81.7156 139.632 80.3905C139.438 80.1881 139.194 80.0306 138.936 79.9205C133.59 77.6408 132.832 82.9628 133.282 87.556C133.439 89.1599 132.347 90.7348 131.444 92.0698C130.549 93.3929 130.208 95.2155 130.138 96.7031C130.095 97.61 129.78 98.5159 129.051 99.0569C123.922 102.863 115.792 103.084 110.805 102.551C109.56 102.418 108.319 102.975 107.68 104.052L106.105 106.707C105.83 107.171 105.685 107.7 105.685 108.238V115.203C105.685 116.141 106.124 117.026 106.872 117.593L109.236 119.386C109.583 119.649 109.981 119.837 110.41 119.914C117.028 121.112 131.325 120.248 138.819 110.278" stroke="black" stroke-width="5"/>
<path d="M152.539 99.502C152.788 88.7525 146.288 87.4519 141.842 90.2726C141.265 90.6389 139.59 92.287 139.078 94.2367C139.023 94.4466 138.961 94.6556 138.88 94.857C136.863 99.8731 138.04 105.567 140.943 108.545C141.168 108.776 141.452 108.956 141.751 109.079C151.378 113.026 152.965 104.392 152.539 99.502Z" fill="#2C2626" stroke="black" stroke-width="5"/>
<path d="M107.769 113.818C86.051 123.664 65.6405 119.094 55.2187 114.252C53.3916 113.403 51.141 114.332 50.6377 116.283L49.1509 122.046C48.8187 123.333 49.3722 124.696 50.5425 125.326C77.8881 140.064 114.35 126.733 114.35 124.217C114.35 122.712 113.082 118.736 111.935 115.496C111.34 113.814 109.394 113.081 107.769 113.818Z" fill="#F8DA2E" stroke="black" stroke-width="2"/>
<path d="M104.433 141.653C84.2932 151.675 68.8812 147.527 58.5213 142.068C56.8068 141.164 54.6488 141.966 54.0552 143.811L53.3898 145.879C52.967 147.193 53.4972 148.636 54.7003 149.313C81.221 164.225 108.322 151.62 108.743 146.895C108.829 145.93 108.692 144.576 108.309 143.124C107.872 141.473 105.962 140.892 104.433 141.653Z" fill="#F8DA2E" stroke="black" stroke-width="2"/>
<path d="M101.299 134.418C88.7331 136.869 71.1195 135.704 61.2023 134.532C59.2211 134.298 57.5178 135.981 57.7786 137.959L58.0352 139.905C58.1836 141.031 58.949 141.984 60.0383 142.303C73.3208 146.19 92.7615 144.515 102.939 142.28C104.267 141.988 105.175 140.795 105.175 139.435V137.484C105.175 135.487 103.259 134.036 101.299 134.418Z" fill="#C28858" stroke="black" stroke-width="2"/>
<path d="M46.2001 149.773C44.0094 147.517 44.4072 141.474 44.9004 138.648L45.8838 135.002C46.2117 133.787 47.2635 132.906 48.5175 132.795L56.4468 132.098C57.4763 132.008 58.4558 132.558 58.9139 133.484C59.0848 133.83 59.1737 134.21 59.1737 134.596V146.622C59.1737 147.139 59.0475 147.656 58.7564 148.083C55.4865 152.888 49.5965 151.566 46.7088 150.132C46.5218 150.039 46.3456 149.923 46.2001 149.773Z" fill="#C28858" stroke="black" stroke-width="3"/>
<path d="M55.8791 135.704C56.3868 134.593 57.5224 133.6 58.2238 133.127C58.8748 132.599 58.7032 131.644 58.4346 130.983C58.3142 130.687 58.1039 130.438 57.8542 130.239C54.7826 127.786 50.7514 127.65 48.8174 127.927C48.6301 127.954 48.4458 128.007 48.2716 128.081C43.5077 130.104 44.2266 134.606 45.3166 136.924C45.4201 137.144 45.5627 137.346 45.7315 137.521C48.9931 140.904 52.4307 139.827 54.4942 138.31C55.2956 137.721 55.4657 136.608 55.8791 135.704Z" fill="#C28858" stroke="black" stroke-width="3"/>
<ellipse cx="49.6113" cy="135.556" rx="1.01952" ry="1.54627" fill="black"/>
<path d="M117.639 150.804C119.829 148.547 119.432 142.505 118.939 139.679L117.955 136.033C117.627 134.818 116.575 133.936 115.321 133.826L107.392 133.129C106.363 133.038 105.383 133.589 104.925 134.515C104.754 134.86 104.665 135.241 104.665 135.626V147.652C104.665 148.169 104.791 148.686 105.082 149.114C108.352 153.918 114.242 152.596 117.13 151.162C117.317 151.069 117.493 150.954 117.639 150.804Z" fill="#C28858" stroke="black" stroke-width="3"/>
<path d="M107.96 136.735C107.452 135.624 106.316 134.631 105.615 134.158C104.964 133.63 105.136 132.675 105.404 132.014C105.525 131.718 105.735 131.469 105.985 131.27C109.056 128.817 113.087 128.681 115.021 128.958C115.209 128.985 115.393 129.038 115.567 129.112C120.331 131.135 119.612 135.637 118.522 137.955C118.419 138.175 118.276 138.377 118.107 138.552C114.846 141.935 111.408 140.858 109.345 139.341C108.543 138.752 108.373 137.639 107.96 136.735Z" fill="#C28858" stroke="black" stroke-width="3"/>
<ellipse cx="1.01952" cy="1.54627" rx="1.01952" ry="1.54627" transform="matrix(-1 0 0 1 115.247 135.041)" fill="black"/>
<g filter="url(#filter0_d_391_2455)">
<rect x="71.0205" y="130.917" width="17.3318" height="15.4627" rx="5" fill="#D1D3D2"/>
<rect x="72.0205" y="131.917" width="15.3318" height="13.4627" rx="4" stroke="black" stroke-width="2"/>
</g>
<g filter="url(#filter1_d_391_2455)">
<rect x="74.0801" y="134.01" width="11.2147" height="9.27759" rx="3" fill="#C28858"/>
<rect x="75.0801" y="135.01" width="9.21467" height="7.27759" rx="2" stroke="black" stroke-width="2"/>
</g>
<defs>
<filter id="filter0_d_391_2455" x="67.0205" y="130.917" width="25.332" height="23.4626" filterUnits="userSpaceOnUse" color-interpolation-filters="sRGB">
<feFlood flood-opacity="0" result="BackgroundImageFix"/>
<feColorMatrix in="SourceAlpha" type="matrix" values="0 0 0 0 0 0 0 0 0 0 0 0 0 0 0 0 0 0 127 0" result="hardAlpha"/>
<feOffset dy="4"/>
<feGaussianBlur stdDeviation="2"/>
<feComposite in2="hardAlpha" operator="out"/>
<feColorMatrix type="matrix" values="0 0 0 0 0 0 0 0 0 0 0 0 0 0 0 0 0 0 0.25 0"/>
<feBlend mode="normal" in2="BackgroundImageFix" result="effect1_dropShadow_391_2455"/>
<feBlend mode="normal" in="SourceGraphic" in2="effect1_dropShadow_391_2455" result="shape"/>
</filter>
<filter id="filter1_d_391_2455" x="70.0801" y="134.01" width="19.2148" height="17.2776" filterUnits="userSpaceOnUse" color-interpolation-filters="sRGB">
<feFlood flood-opacity="0" result="BackgroundImageFix"/>
<feColorMatrix in="SourceAlpha" type="matrix" values="0 0 0 0 0 0 0 0 0 0 0 0 0 0 0 0 0 0 127 0" result="hardAlpha"/>
<feOffset dy="4"/>
<feGaussianBlur stdDeviation="2"/>
<feComposite in2="hardAlpha" operator="out"/>
<feColorMatrix type="matrix" values="0 0 0 0 0 0 0 0 0 0 0 0 0 0 0 0 0 0 0.25 0"/>
<feBlend mode="normal" in2="BackgroundImageFix" result="effect1_dropShadow_391_2455"/>
<feBlend mode="normal" in="SourceGraphic" in2="effect1_dropShadow_391_2455" result="shape"/>
</filter>
</defs>
</svg>
