<svg width="182" height="67" viewBox="0 0 182 67" fill="none" xmlns="http://www.w3.org/2000/svg">
<path d="M55.5342 60.5349L45.2294 64.7488C44.2719 65.1399 43.1817 64.9858 42.3712 64.3459L33.6258 57.4563C33.1092 57.051 32.4266 56.769 31.8199 57.0155L22.7854 60.6653C21.835 61.0516 20.7495 60.8975 19.9437 60.2671L12.7176 54.6217C11.9094 53.9889 11.5017 52.9769 11.6439 51.9602L12.9996 42.3119C13.0896 41.6601 12.6536 41.0676 12.1345 40.6647L3.3323 33.8462C2.51464 33.2134 2.09989 32.1919 2.25157 31.1705L3.84422 20.1499C3.99353 19.126 4.68084 18.2562 5.64306 17.8652L16.0403 13.6632C17.0049 13.2745 18.1046 13.4238 18.9246 14.0566L26.7551 20.1214C27.1818 20.4532 27.7766 20.4106 28.2767 20.2091C34.2515 17.7917 38.3232 16.3792 38.5744 16.0474C38.7332 15.8412 38.8446 15.6184 38.8446 15.6161C38.8801 15.5521 38.9228 15.462 38.9892 15.244C39.065 15.0022 39.084 14.8695 39.0934 14.8055C39.1314 14.6112 39.1432 14.5282 39.1551 14.4453C39.1669 14.3647 39.1788 14.2841 39.2167 14.0969C39.2356 13.9973 39.2641 13.8622 39.2925 13.675C39.3115 13.547 39.3233 13.4427 39.3304 13.3645C39.385 12.8455 39.3921 12.4473 39.4015 12.3431C39.539 10.2314 40.2145 6.29005 40.6719 2.88197C40.7548 2.2468 41.3402 1.80361 41.973 1.88893C42.6082 1.97188 43.0514 2.55728 42.966 3.1877L41.3829 14.969C41.3094 15.5165 41.5298 16.0664 41.9635 16.4076L45.9309 19.5479L49.9386 22.6408C50.3723 22.9773 50.9601 23.0603 51.472 22.8564L62.5234 18.4695C63.1159 18.2349 63.789 18.5241 64.026 19.1189C64.263 19.7138 63.9715 20.3845 63.379 20.6215C60.1842 21.8895 56.5225 23.4987 54.5056 24.1434C54.4061 24.1765 54.0222 24.2808 53.5316 24.4586C53.4581 24.4846 53.3586 24.5226 53.2401 24.57C53.0623 24.6411 52.9391 24.7003 52.849 24.7453C52.676 24.8283 52.6002 24.8591 52.5267 24.8899C52.4485 24.9207 52.3679 24.9539 52.1925 25.0369C52.1309 25.0606 52.01 25.1127 51.792 25.2454C51.5953 25.3615 51.5194 25.4255 51.4649 25.4753C51.4649 25.4753 51.2729 25.6365 51.1094 25.8403C50.8487 26.1721 50.4648 30.4618 49.5642 36.8419C49.4883 37.3751 49.5926 37.9629 50.0192 38.2971L57.8 44.4259C58.6129 45.0682 59.0229 46.0968 58.8807 47.1278L57.3189 58.2313C57.1743 59.2622 56.4965 60.1391 55.539 60.5302L55.5342 60.5349Z" fill="#4A2F0B"/>
<path d="M16.1636 16.4692C16.9386 16.1563 17.8202 16.2796 18.4767 16.7939L25.5559 22.3255C26.2148 22.8398 26.5466 23.6645 26.4305 24.4917L25.1791 33.3887C25.063 34.2158 24.5155 34.9173 23.7405 35.2302L15.4099 38.5956C14.6349 38.9084 13.7532 38.7852 13.0968 38.2709L6.01751 32.7393C5.35864 32.225 5.02684 31.4002 5.14297 30.5731L6.39434 21.6761C6.51047 20.8489 7.05794 20.1474 7.83294 19.8346L16.1636 16.4692Z" fill="#FBB800"/>
<path d="M45.7768 39.7618C46.5518 39.4489 47.4335 39.5722 48.09 40.0865L55.1692 45.6181C55.8281 46.1324 56.1599 46.9571 56.0438 47.7843L54.7924 56.6813C54.6763 57.5084 54.1288 58.2099 53.3538 58.5228L45.0232 61.8882C44.2482 62.201 43.3665 62.0778 42.71 61.5635L35.6308 56.0319C34.9719 55.5176 34.6401 54.6928 34.7562 53.8657L36.0076 44.9687C36.1238 44.1416 36.6712 43.44 37.4462 43.1272L45.7768 39.7618Z" fill="#FBB800"/>
<path d="M75.5789 46.5404C75.0986 46.5404 74.7383 46.4684 74.4982 46.3243C74.282 46.2042 74.1379 46.0241 74.0659 45.7839C73.9938 45.5197 73.9578 45.2195 73.9578 44.8833V23.0166C73.9578 22.3922 74.0779 21.9719 74.318 21.7558C74.5822 21.5156 75.0385 21.3955 75.687 21.3955H90.1687C90.5049 21.3955 90.7811 21.4315 90.9972 21.5036C91.2374 21.5756 91.4175 21.7317 91.5376 21.9719C91.6577 22.2121 91.7177 22.5723 91.7177 23.0526C91.7177 23.533 91.6457 23.8932 91.5016 24.1334C91.3815 24.3495 91.2014 24.4936 90.9612 24.5656C90.7211 24.6377 90.4329 24.6737 90.0966 24.6737H77.2V32.1307H86.17C86.5062 32.1307 86.7824 32.1668 86.9986 32.2388C87.2387 32.3109 87.4188 32.4549 87.5389 32.6711C87.659 32.8872 87.719 33.2235 87.719 33.6798C87.719 34.1121 87.659 34.4363 87.5389 34.6524C87.4188 34.8686 87.2387 35.0127 86.9986 35.0847C86.7824 35.1327 86.4942 35.1568 86.134 35.1568H77.2V44.9193C77.2 45.2556 77.1639 45.5437 77.0919 45.7839C77.0198 46.0241 76.8637 46.2042 76.6236 46.3243C76.4074 46.4684 76.0592 46.5404 75.5789 46.5404ZM97.2773 46.5404C96.821 46.5404 96.4727 46.4684 96.2326 46.3243C96.0164 46.2042 95.8723 46.0241 95.8003 45.7839C95.7282 45.5437 95.6922 45.2556 95.6922 44.9193V30.6898C95.6922 30.3535 95.7282 30.0653 95.8003 29.8252C95.8723 29.585 96.0164 29.4049 96.2326 29.2848C96.4727 29.1647 96.833 29.1047 97.3133 29.1047C97.7696 29.1047 98.1058 29.1767 98.322 29.3208C98.5381 29.4409 98.6822 29.621 98.7543 29.8612C98.8263 30.1014 98.8623 30.4016 98.8623 30.7618V44.9554C98.8623 45.2916 98.8263 45.5798 98.7543 45.8199C98.6822 46.0601 98.5261 46.2402 98.286 46.3603C98.0698 46.4804 97.7336 46.5404 97.2773 46.5404ZM97.2773 24.7818C96.7489 24.7818 96.3527 24.7097 96.0885 24.5656C95.8243 24.3975 95.6442 24.1694 95.5481 23.8812C95.4761 23.593 95.44 23.2568 95.44 22.8725C95.44 22.4882 95.4881 22.164 95.5841 21.8999C95.6802 21.6117 95.8603 21.4075 96.1245 21.2874C96.3887 21.1433 96.7849 21.0713 97.3133 21.0713C97.8176 21.0713 98.2019 21.1433 98.4661 21.2874C98.7303 21.4315 98.8984 21.6477 98.9704 21.9359C99.0665 22.2241 99.1145 22.5603 99.1145 22.9446C99.1145 23.3288 99.0665 23.665 98.9704 23.9532C98.8984 24.2174 98.7303 24.4215 98.4661 24.5656C98.2019 24.7097 97.8056 24.7818 97.2773 24.7818ZM117.005 29.3569C117.342 29.621 117.57 29.8732 117.69 30.1134C117.81 30.3295 117.822 30.5817 117.726 30.8699C117.63 31.1341 117.414 31.4583 117.077 31.8425L105.694 45.856C105.382 46.2162 105.105 46.4564 104.865 46.5764C104.625 46.7205 104.385 46.7566 104.145 46.6845C103.929 46.6125 103.664 46.4564 103.352 46.2162C103.04 45.952 102.824 45.7119 102.704 45.4957C102.608 45.2556 102.608 45.0034 102.704 44.7392C102.824 44.475 103.04 44.1508 103.352 43.7666L114.736 29.7531C115.216 29.2248 115.6 28.9366 115.889 28.8886C116.177 28.8165 116.549 28.9726 117.005 29.3569ZM103.424 29.3569C103.736 29.1167 104.001 28.9606 104.217 28.8886C104.457 28.8165 104.685 28.8525 104.901 28.9966C105.117 29.1407 105.369 29.3929 105.658 29.7531L117.041 43.7666C117.378 44.1508 117.594 44.475 117.69 44.7392C117.81 45.0034 117.81 45.2556 117.69 45.4957C117.594 45.7119 117.378 45.952 117.041 46.2162C116.753 46.4564 116.489 46.6125 116.249 46.6845C116.033 46.7566 115.805 46.7205 115.564 46.5764C115.324 46.4564 115.048 46.2162 114.736 45.856L103.352 31.8425C103.016 31.4583 102.8 31.1341 102.704 30.8699C102.608 30.5817 102.608 30.3295 102.704 30.1134C102.824 29.8732 103.064 29.621 103.424 29.3569Z" fill="#4A2F0B"/>
<path d="M122.666 46.5404C122.234 46.5404 121.898 46.4564 121.658 46.2882C121.441 46.1442 121.297 45.928 121.225 45.6398C121.153 45.3276 121.117 44.9914 121.117 44.6311V23.2327C121.117 22.8725 121.153 22.5603 121.225 22.2961C121.321 22.0079 121.477 21.7918 121.694 21.6477C121.934 21.4796 122.27 21.3955 122.702 21.3955H132.753C134.098 21.3955 135.275 21.6957 136.283 22.2961C137.316 22.8965 138.121 23.7131 138.697 24.7458C139.273 25.7785 139.55 26.9072 139.526 28.132C139.55 28.7565 139.477 29.3689 139.309 29.9693C139.141 30.5697 138.889 31.1341 138.553 31.6624C138.241 32.1668 137.844 32.587 137.364 32.9233C138.013 33.3315 138.565 33.8599 139.021 34.5083C139.477 35.1568 139.826 35.8772 140.066 36.6698C140.306 37.4623 140.426 38.2909 140.426 39.1555C140.402 40.1881 140.21 41.1608 139.85 42.0734C139.489 42.962 138.973 43.7425 138.301 44.415C137.628 45.0874 136.848 45.6158 135.959 46.0001C135.071 46.3603 134.122 46.5404 133.113 46.5404H122.666ZM124.359 43.4423H132.753C133.69 43.4423 134.494 43.2622 135.167 42.902C135.839 42.5417 136.355 42.0134 136.716 41.3169C137.076 40.6204 137.256 39.7679 137.256 38.7592C137.256 37.8946 137.136 37.1981 136.896 36.6698C136.656 36.1414 136.331 35.7452 135.923 35.481C135.515 35.1928 135.071 34.9887 134.59 34.8686C134.134 34.7485 133.678 34.6885 133.221 34.6885C132.789 34.6644 132.393 34.6524 132.032 34.6524H129.835C129.355 34.6524 129.006 34.5323 128.79 34.2922C128.574 34.052 128.466 33.6678 128.466 33.1394C128.466 32.6351 128.574 32.2748 128.79 32.0587C129.03 31.8425 129.391 31.7345 129.871 31.7345H132.069C132.453 31.7345 132.885 31.7225 133.365 31.6984C133.846 31.6744 134.314 31.5784 134.77 31.4102C135.251 31.2421 135.635 30.9299 135.923 30.4736C136.235 29.9933 136.391 29.3208 136.391 28.4563C136.391 27.1114 136.031 26.1267 135.311 25.5023C134.59 24.8538 133.401 24.5296 131.744 24.5296H124.359V43.4423ZM152.555 46.7205C151.114 46.7205 149.829 46.4804 148.701 46.0001C147.572 45.5197 146.611 44.8713 145.819 44.0547C145.05 43.2142 144.462 42.2535 144.054 41.1728C143.645 40.0921 143.441 38.9273 143.441 37.6785C143.441 36.0213 143.825 34.5444 144.594 33.2475C145.362 31.9506 146.419 30.9299 147.764 30.1854C149.133 29.4169 150.694 29.0326 152.447 29.0326C153.648 29.0326 154.717 29.2248 155.653 29.609C156.614 29.9693 157.431 30.4616 158.103 31.086C158.775 31.7104 159.292 32.4069 159.652 33.1754C160.012 33.9439 160.192 34.7125 160.192 35.481C160.192 36.7058 159.904 37.5704 159.328 38.0747C158.751 38.555 158.043 38.7952 157.202 38.7952H146.791C146.767 39.8519 147.044 40.7645 147.62 41.5331C148.22 42.2776 148.965 42.8539 149.853 43.2622C150.766 43.6705 151.679 43.8746 152.591 43.8746C153.264 43.8746 153.84 43.8386 154.32 43.7666C154.801 43.6945 155.221 43.5984 155.581 43.4784C155.942 43.3583 156.254 43.2382 156.518 43.1181C156.782 42.998 157.01 42.878 157.202 42.7579C157.419 42.6378 157.623 42.5537 157.815 42.5057C158.031 42.4577 158.235 42.4817 158.427 42.5778C158.643 42.6498 158.812 42.8059 158.932 43.0461C159.076 43.2382 159.172 43.4183 159.22 43.5864C159.268 43.7545 159.292 43.9347 159.292 44.1268C159.292 44.463 159.004 44.8353 158.427 45.2435C157.851 45.6518 157.046 46.0001 156.014 46.2882C155.005 46.5764 153.852 46.7205 152.555 46.7205ZM146.791 36.6698H155.834C156.29 36.6698 156.626 36.6097 156.842 36.4897C157.082 36.3696 157.202 36.0454 157.202 35.517C157.202 34.8446 156.998 34.2442 156.59 33.7158C156.182 33.1634 155.617 32.7191 154.897 32.3829C154.2 32.0467 153.396 31.8786 152.483 31.8786C151.427 31.8786 150.454 32.0947 149.565 32.527C148.701 32.9353 148.016 33.4997 147.512 34.2201C147.008 34.9406 146.767 35.7572 146.791 36.6698ZM172.01 46.7205C170.569 46.7205 169.284 46.4804 168.155 46.0001C167.026 45.5197 166.066 44.8713 165.273 44.0547C164.505 43.2142 163.916 42.2535 163.508 41.1728C163.1 40.0921 162.896 38.9273 162.896 37.6785C162.896 36.0213 163.28 34.5444 164.048 33.2475C164.817 31.9506 165.874 30.9299 167.219 30.1854C168.587 29.4169 170.149 29.0326 171.902 29.0326C173.103 29.0326 174.171 29.2248 175.108 29.609C176.069 29.9693 176.885 30.4616 177.558 31.086C178.23 31.7104 178.746 32.4069 179.107 33.1754C179.467 33.9439 179.647 34.7125 179.647 35.481C179.647 36.7058 179.359 37.5704 178.782 38.0747C178.206 38.555 177.497 38.7952 176.657 38.7952H166.246C166.222 39.8519 166.498 40.7645 167.074 41.5331C167.675 42.2776 168.419 42.8539 169.308 43.2622C170.221 43.6705 171.133 43.8746 172.046 43.8746C172.718 43.8746 173.295 43.8386 173.775 43.7666C174.255 43.6945 174.676 43.5984 175.036 43.4784C175.396 43.3583 175.708 43.2382 175.972 43.1181C176.237 42.998 176.465 42.878 176.657 42.7579C176.873 42.6378 177.077 42.5537 177.269 42.5057C177.485 42.4577 177.69 42.4817 177.882 42.5778C178.098 42.6498 178.266 42.8059 178.386 43.0461C178.53 43.2382 178.626 43.4183 178.674 43.5864C178.722 43.7545 178.746 43.9347 178.746 44.1268C178.746 44.463 178.458 44.8353 177.882 45.2435C177.305 45.6518 176.501 46.0001 175.468 46.2882C174.459 46.5764 173.307 46.7205 172.01 46.7205ZM166.246 36.6698H175.288C175.744 36.6698 176.081 36.6097 176.297 36.4897C176.537 36.3696 176.657 36.0454 176.657 35.517C176.657 34.8446 176.453 34.2442 176.045 33.7158C175.636 33.1634 175.072 32.7191 174.351 32.3829C173.655 32.0467 172.85 31.8786 171.938 31.8786C170.881 31.8786 169.908 32.0947 169.02 32.527C168.155 32.9353 167.471 33.4997 166.966 34.2201C166.462 34.9406 166.222 35.7572 166.246 36.6698Z" fill="#8A5611"/>
</svg>
