<svg width="25" height="25" viewBox="0 0 25 25" fill="none" xmlns="http://www.w3.org/2000/svg">
<path d="M16.2315 8.11572C17.8458 8.11572 19.3941 8.75703 20.5356 9.89855C21.6771 11.0401 22.3184 12.5883 22.3184 14.2027V21.3041H18.2605V14.2027C18.2605 13.6646 18.0467 13.1485 17.6662 12.768C17.2857 12.3875 16.7696 12.1737 16.2315 12.1737C15.6934 12.1737 15.1773 12.3875 14.7968 12.768C14.4163 13.1485 14.2025 13.6646 14.2025 14.2027V21.3041H10.1445V14.2027C10.1445 12.5883 10.7858 11.0401 11.9274 9.89855C13.0689 8.75703 14.6171 8.11572 16.2315 8.11572Z" stroke="#8A5611" stroke-width="2.31884" stroke-linecap="round" stroke-linejoin="round"/>
<path d="M6.08727 9.13037H2.0293V21.3043H6.08727V9.13037Z" stroke="#8A5611" stroke-width="2.31884" stroke-linecap="round" stroke-linejoin="round"/>
<path d="M4.05828 6.08678C5.17886 6.08678 6.08727 5.17837 6.08727 4.05779C6.08727 2.93722 5.17886 2.02881 4.05828 2.02881C2.9377 2.02881 2.0293 2.93722 2.0293 4.05779C2.0293 5.17837 2.9377 6.08678 4.05828 6.08678Z" stroke="#8A5611" stroke-width="2.31884" stroke-linecap="round" stroke-linejoin="round"/>
</svg>
