<svg width="282" height="452" viewBox="0 0 282 452" fill="none" xmlns="http://www.w3.org/2000/svg">
<style>
@keyframes kf_Shadow_transform_0 {
  0% {
    animation-timing-function: cubic-bezier(0.5, 0, 0.5, 1);
    transform: translateX(130.17px) translateY(432.933px) translate(30px, 4px) scaleX(0.5) scaleY(0.5) translate(-30px, -4px) scaleX(1) scaleY(1);
  }
  50.12% {
    transform: translateX(130.17px) translateY(432.933px) translate(30px, 4px) scaleX(1) scaleY(1) translate(-30px, -4px) scaleX(1) scaleY(1);
  }
  100% {
    transform: translateX(130.17px) translateY(432.933px) translate(30px, 4px) scaleX(0.5) scaleY(0.5) translate(-30px, -4px) scaleX(1) scaleY(1);
  }
}
#Shadow {
  transform-origin: 0 0;
  animation: kf_Shadow_transform_0 0.798931s linear infinite;
}
@keyframes kf_Bee_Body_transform_0 {
  0% {
    transform: translateX(26px) translateY(-1.312px) translateX(0px) translateY(0.259px);
  }
  50.07% {
    transform: translateX(26px) translateY(-1.312px) translateX(0px) translateY(20.259px);
  }
  100% {
    transform: translateX(26px) translateY(-1.312px) translateX(0px) translateY(0.259px);
  }
}
#Bee_Body {
  transform-origin: 0 0;
  animation: kf_Bee_Body_transform_0 0.798931s linear infinite;
}
@keyframes kf_Wings_transform_0 {
  0% {
    animation-timing-function: cubic-bezier(0.5, 0, 0.5, 1);
    transform: translateY(155.313px) translate(120px, 42.561px) scaleX(1) scaleY(1) translate(-120px, -42.561px);
  }
  0.76% {
    animation-timing-function: cubic-bezier(0.5, 0, 0.5, 1);
    transform: translateY(155.313px) translate(120px, 42.561px) scaleX(0.8) scaleY(0.8) translate(-120px, -42.561px);
  }
  1.51% {
    animation-timing-function: cubic-bezier(0.5, 0, 0.5, 1);
    transform: translateY(155.313px) translate(120px, 42.561px) scaleX(1) scaleY(1) translate(-120px, -42.561px);
  }
  2.14% {
    animation-timing-function: cubic-bezier(0.5, 0, 0.5, 1);
    transform: translateY(155.313px) translate(120px, 42.561px) scaleX(0.8) scaleY(0.8) translate(-120px, -42.561px);
  }
  2.9% {
    animation-timing-function: cubic-bezier(0.5, 0, 0.5, 1);
    transform: translateY(155.313px) translate(120px, 42.561px) scaleX(1) scaleY(1) translate(-120px, -42.561px);
  }
  3.53% {
    animation-timing-function: cubic-bezier(0.5, 0, 0.5, 1);
    transform: translateY(155.313px) translate(120px, 42.561px) scaleX(0.8) scaleY(0.8) translate(-120px, -42.561px);
  }
  4.29% {
    animation-timing-function: cubic-bezier(0.5, 0, 0.5, 1);
    transform: translateY(155.313px) translate(120px, 42.561px) scaleX(1) scaleY(1) translate(-120px, -42.561px);
  }
  4.92% {
    animation-timing-function: cubic-bezier(0.5, 0, 0.5, 1);
    transform: translateY(155.313px) translate(120px, 42.561px) scaleX(0.8) scaleY(0.8) translate(-120px, -42.561px);
  }
  5.67% {
    animation-timing-function: cubic-bezier(0.5, 0, 0.5, 1);
    transform: translateY(155.313px) translate(120px, 42.561px) scaleX(1) scaleY(1) translate(-120px, -42.561px);
  }
  6.31% {
    animation-timing-function: cubic-bezier(0.5, 0, 0.5, 1);
    transform: translateY(155.313px) translate(120px, 42.561px) scaleX(0.8) scaleY(0.8) translate(-120px, -42.561px);
  }
  7.06% {
    animation-timing-function: cubic-bezier(0.5, 0, 0.5, 1);
    transform: translateY(155.313px) translate(120px, 42.561px) scaleX(1) scaleY(1) translate(-120px, -42.561px);
  }
  7.69% {
    animation-timing-function: cubic-bezier(0.5, 0, 0.5, 1);
    transform: translateY(155.313px) translate(120px, 42.561px) scaleX(0.8) scaleY(0.8) translate(-120px, -42.561px);
  }
  8.45% {
    animation-timing-function: cubic-bezier(0.5, 0, 0.5, 1);
    transform: translateY(155.313px) translate(120px, 42.561px) scaleX(1) scaleY(1) translate(-120px, -42.561px);
  }
  8.95% {
    animation-timing-function: cubic-bezier(0.5, 0, 0.5, 1);
    transform: translateY(155.313px) translate(120px, 42.561px) scaleX(0.8) scaleY(0.8) translate(-120px, -42.561px);
  }
  9.71% {
    animation-timing-function: cubic-bezier(0.5, 0, 0.5, 1);
    transform: translateY(155.313px) translate(120px, 42.561px) scaleX(1) scaleY(1) translate(-120px, -42.561px);
  }
  10.34% {
    animation-timing-function: cubic-bezier(0.5, 0, 0.5, 1);
    transform: translateY(155.313px) translate(120px, 42.561px) scaleX(0.8) scaleY(0.8) translate(-120px, -42.561px);
  }
  11.1% {
    animation-timing-function: cubic-bezier(0.5, 0, 0.5, 1);
    transform: translateY(155.313px) translate(120px, 42.561px) scaleX(1) scaleY(1) translate(-120px, -42.561px);
  }
  11.73% {
    animation-timing-function: cubic-bezier(0.5, 0, 0.5, 1);
    transform: translateY(155.313px) translate(120px, 42.561px) scaleX(0.8) scaleY(0.8) translate(-120px, -42.561px);
  }
  12.48% {
    animation-timing-function: cubic-bezier(0.5, 0, 0.5, 1);
    transform: translateY(155.313px) translate(120px, 42.561px) scaleX(1) scaleY(1) translate(-120px, -42.561px);
  }
  13.11% {
    animation-timing-function: cubic-bezier(0.5, 0, 0.5, 1);
    transform: translateY(155.313px) translate(120px, 42.561px) scaleX(0.8) scaleY(0.8) translate(-120px, -42.561px);
  }
  13.87% {
    animation-timing-function: cubic-bezier(0.5, 0, 0.5, 1);
    transform: translateY(155.313px) translate(120px, 42.561px) scaleX(1) scaleY(1) translate(-120px, -42.561px);
  }
  14.5% {
    animation-timing-function: cubic-bezier(0.5, 0, 0.5, 1);
    transform: translateY(155.313px) translate(120px, 42.561px) scaleX(0.8) scaleY(0.8) translate(-120px, -42.561px);
  }
  15.26% {
    animation-timing-function: cubic-bezier(0.5, 0, 0.5, 1);
    transform: translateY(155.313px) translate(120px, 42.561px) scaleX(1) scaleY(1) translate(-120px, -42.561px);
  }
  15.89% {
    animation-timing-function: cubic-bezier(0.5, 0, 0.5, 1);
    transform: translateY(155.313px) translate(120px, 42.561px) scaleX(0.8) scaleY(0.8) translate(-120px, -42.561px);
  }
  16.65% {
    animation-timing-function: cubic-bezier(0.5, 0, 0.5, 1);
    transform: translateY(155.313px) translate(120px, 42.561px) scaleX(1) scaleY(1) translate(-120px, -42.561px);
  }
  17.28% {
    animation-timing-function: cubic-bezier(0.5, 0, 0.5, 1);
    transform: translateY(155.313px) translate(120px, 42.561px) scaleX(0.8) scaleY(0.8) translate(-120px, -42.561px);
  }
  18.03% {
    animation-timing-function: cubic-bezier(0.5, 0, 0.5, 1);
    transform: translateY(155.313px) translate(120px, 42.561px) scaleX(1) scaleY(1) translate(-120px, -42.561px);
  }
  18.66% {
    animation-timing-function: cubic-bezier(0.5, 0, 0.5, 1);
    transform: translateY(155.313px) translate(120px, 42.561px) scaleX(0.8) scaleY(0.8) translate(-120px, -42.561px);
  }
  19.42% {
    animation-timing-function: cubic-bezier(0.5, 0, 0.5, 1);
    transform: translateY(155.313px) translate(120px, 42.561px) scaleX(1) scaleY(1) translate(-120px, -42.561px);
  }
  20.05% {
    animation-timing-function: cubic-bezier(0.5, 0, 0.5, 1);
    transform: translateY(155.313px) translate(120px, 42.561px) scaleX(0.8) scaleY(0.8) translate(-120px, -42.561px);
  }
  20.81% {
    animation-timing-function: cubic-bezier(0.5, 0, 0.5, 1);
    transform: translateY(155.313px) translate(120px, 42.561px) scaleX(1) scaleY(1) translate(-120px, -42.561px);
  }
  21.31% {
    animation-timing-function: cubic-bezier(0.5, 0, 0.5, 1);
    transform: translateY(155.313px) translate(120px, 42.561px) scaleX(0.8) scaleY(0.8) translate(-120px, -42.561px);
  }
  22.07% {
    animation-timing-function: cubic-bezier(0.5, 0, 0.5, 1);
    transform: translateY(155.313px) translate(120px, 42.561px) scaleX(1) scaleY(1) translate(-120px, -42.561px);
  }
  22.7% {
    animation-timing-function: cubic-bezier(0.5, 0, 0.5, 1);
    transform: translateY(155.313px) translate(120px, 42.561px) scaleX(0.8) scaleY(0.8) translate(-120px, -42.561px);
  }
  23.46% {
    animation-timing-function: cubic-bezier(0.5, 0, 0.5, 1);
    transform: translateY(155.313px) translate(120px, 42.561px) scaleX(1) scaleY(1) translate(-120px, -42.561px);
  }
  24.09% {
    animation-timing-function: cubic-bezier(0.5, 0, 0.5, 1);
    transform: translateY(155.313px) translate(120px, 42.561px) scaleX(0.8) scaleY(0.8) translate(-120px, -42.561px);
  }
  24.84% {
    animation-timing-function: cubic-bezier(0.5, 0, 0.5, 1);
    transform: translateY(155.313px) translate(120px, 42.561px) scaleX(1) scaleY(1) translate(-120px, -42.561px);
  }
  25.6% {
    animation-timing-function: cubic-bezier(0.5, 0, 0.5, 1);
    transform: translateY(155.313px) translate(120px, 42.561px) scaleX(0.8) scaleY(0.8) translate(-120px, -42.561px);
  }
  26.36% {
    animation-timing-function: cubic-bezier(0.5, 0, 0.5, 1);
    transform: translateY(155.313px) translate(120px, 42.561px) scaleX(1) scaleY(1) translate(-120px, -42.561px);
  }
  26.99% {
    animation-timing-function: cubic-bezier(0.5, 0, 0.5, 1);
    transform: translateY(155.313px) translate(120px, 42.561px) scaleX(0.8) scaleY(0.8) translate(-120px, -42.561px);
  }
  27.74% {
    animation-timing-function: cubic-bezier(0.5, 0, 0.5, 1);
    transform: translateY(155.313px) translate(120px, 42.561px) scaleX(1) scaleY(1) translate(-120px, -42.561px);
  }
  28.37% {
    animation-timing-function: cubic-bezier(0.5, 0, 0.5, 1);
    transform: translateY(155.313px) translate(120px, 42.561px) scaleX(0.8) scaleY(0.8) translate(-120px, -42.561px);
  }
  29.13% {
    animation-timing-function: cubic-bezier(0.5, 0, 0.5, 1);
    transform: translateY(155.313px) translate(120px, 42.561px) scaleX(1) scaleY(1) translate(-120px, -42.561px);
  }
  29.76% {
    animation-timing-function: cubic-bezier(0.5, 0, 0.5, 1);
    transform: translateY(155.313px) translate(120px, 42.561px) scaleX(0.8) scaleY(0.8) translate(-120px, -42.561px);
  }
  30.52% {
    animation-timing-function: cubic-bezier(0.5, 0, 0.5, 1);
    transform: translateY(155.313px) translate(120px, 42.561px) scaleX(1) scaleY(1) translate(-120px, -42.561px);
  }
  31.15% {
    animation-timing-function: cubic-bezier(0.5, 0, 0.5, 1);
    transform: translateY(155.313px) translate(120px, 42.561px) scaleX(0.8) scaleY(0.8) translate(-120px, -42.561px);
  }
  31.9% {
    animation-timing-function: cubic-bezier(0.5, 0, 0.5, 1);
    transform: translateY(155.313px) translate(120px, 42.561px) scaleX(1) scaleY(1) translate(-120px, -42.561px);
  }
  32.53% {
    animation-timing-function: cubic-bezier(0.5, 0, 0.5, 1);
    transform: translateY(155.313px) translate(120px, 42.561px) scaleX(0.8) scaleY(0.8) translate(-120px, -42.561px);
  }
  33.29% {
    animation-timing-function: cubic-bezier(0.5, 0, 0.5, 1);
    transform: translateY(155.313px) translate(120px, 42.561px) scaleX(1) scaleY(1) translate(-120px, -42.561px);
  }
  33.8% {
    animation-timing-function: cubic-bezier(0.5, 0, 0.5, 1);
    transform: translateY(155.313px) translate(120px, 42.561px) scaleX(0.8) scaleY(0.8) translate(-120px, -42.561px);
  }
  34.55% {
    animation-timing-function: cubic-bezier(0.5, 0, 0.5, 1);
    transform: translateY(155.313px) translate(120px, 42.561px) scaleX(1) scaleY(1) translate(-120px, -42.561px);
  }
  35.18% {
    animation-timing-function: cubic-bezier(0.5, 0, 0.5, 1);
    transform: translateY(155.313px) translate(120px, 42.561px) scaleX(0.8) scaleY(0.8) translate(-120px, -42.561px);
  }
  35.94% {
    animation-timing-function: cubic-bezier(0.5, 0, 0.5, 1);
    transform: translateY(155.313px) translate(120px, 42.561px) scaleX(1) scaleY(1) translate(-120px, -42.561px);
  }
  36.57% {
    animation-timing-function: cubic-bezier(0.5, 0, 0.5, 1);
    transform: translateY(155.313px) translate(120px, 42.561px) scaleX(0.8) scaleY(0.8) translate(-120px, -42.561px);
  }
  37.33% {
    animation-timing-function: cubic-bezier(0.5, 0, 0.5, 1);
    transform: translateY(155.313px) translate(120px, 42.561px) scaleX(1) scaleY(1) translate(-120px, -42.561px);
  }
  37.96% {
    animation-timing-function: cubic-bezier(0.5, 0, 0.5, 1);
    transform: translateY(155.313px) translate(120px, 42.561px) scaleX(0.8) scaleY(0.8) translate(-120px, -42.561px);
  }
  38.71% {
    animation-timing-function: cubic-bezier(0.5, 0, 0.5, 1);
    transform: translateY(155.313px) translate(120px, 42.561px) scaleX(1) scaleY(1) translate(-120px, -42.561px);
  }
  39.34% {
    animation-timing-function: cubic-bezier(0.5, 0, 0.5, 1);
    transform: translateY(155.313px) translate(120px, 42.561px) scaleX(0.8) scaleY(0.8) translate(-120px, -42.561px);
  }
  40.1% {
    animation-timing-function: cubic-bezier(0.5, 0, 0.5, 1);
    transform: translateY(155.313px) translate(120px, 42.561px) scaleX(1) scaleY(1) translate(-120px, -42.561px);
  }
  40.73% {
    animation-timing-function: cubic-bezier(0.5, 0, 0.5, 1);
    transform: translateY(155.313px) translate(120px, 42.561px) scaleX(0.8) scaleY(0.8) translate(-120px, -42.561px);
  }
  41.49% {
    animation-timing-function: cubic-bezier(0.5, 0, 0.5, 1);
    transform: translateY(155.313px) translate(120px, 42.561px) scaleX(1) scaleY(1) translate(-120px, -42.561px);
  }
  42.12% {
    animation-timing-function: cubic-bezier(0.5, 0, 0.5, 1);
    transform: translateY(155.313px) translate(120px, 42.561px) scaleX(0.8) scaleY(0.8) translate(-120px, -42.561px);
  }
  42.88% {
    animation-timing-function: cubic-bezier(0.5, 0, 0.5, 1);
    transform: translateY(155.313px) translate(120px, 42.561px) scaleX(1) scaleY(1) translate(-120px, -42.561px);
  }
  43.51% {
    animation-timing-function: cubic-bezier(0.5, 0, 0.5, 1);
    transform: translateY(155.313px) translate(120px, 42.561px) scaleX(0.8) scaleY(0.8) translate(-120px, -42.561px);
  }
  44.26% {
    animation-timing-function: cubic-bezier(0.5, 0, 0.5, 1);
    transform: translateY(155.313px) translate(120px, 42.561px) scaleX(1) scaleY(1) translate(-120px, -42.561px);
  }
  44.89% {
    animation-timing-function: cubic-bezier(0.5, 0, 0.5, 1);
    transform: translateY(155.313px) translate(120px, 42.561px) scaleX(0.8) scaleY(0.8) translate(-120px, -42.561px);
  }
  45.65% {
    animation-timing-function: cubic-bezier(0.5, 0, 0.5, 1);
    transform: translateY(155.313px) translate(120px, 42.561px) scaleX(1) scaleY(1) translate(-120px, -42.561px);
  }
  46.15% {
    animation-timing-function: cubic-bezier(0.5, 0, 0.5, 1);
    transform: translateY(155.313px) translate(120px, 42.561px) scaleX(0.8) scaleY(0.8) translate(-120px, -42.561px);
  }
  46.91% {
    animation-timing-function: cubic-bezier(0.5, 0, 0.5, 1);
    transform: translateY(155.313px) translate(120px, 42.561px) scaleX(1) scaleY(1) translate(-120px, -42.561px);
  }
  47.54% {
    animation-timing-function: cubic-bezier(0.5, 0, 0.5, 1);
    transform: translateY(155.313px) translate(120px, 42.561px) scaleX(0.8) scaleY(0.8) translate(-120px, -42.561px);
  }
  48.3% {
    animation-timing-function: cubic-bezier(0.5, 0, 0.5, 1);
    transform: translateY(155.313px) translate(120px, 42.561px) scaleX(1) scaleY(1) translate(-120px, -42.561px);
  }
  48.93% {
    animation-timing-function: cubic-bezier(0.5, 0, 0.5, 1);
    transform: translateY(155.313px) translate(120px, 42.561px) scaleX(0.8) scaleY(0.8) translate(-120px, -42.561px);
  }
  49.68% {
    animation-timing-function: cubic-bezier(0.5, 0, 0.5, 1);
    transform: translateY(155.313px) translate(120px, 42.561px) scaleX(1) scaleY(1) translate(-120px, -42.561px);
  }
  50.44% {
    animation-timing-function: cubic-bezier(0.5, 0, 0.5, 1);
    transform: translateY(155.313px) translate(120px, 42.561px) scaleX(0.8) scaleY(0.8) translate(-120px, -42.561px);
  }
  51.2% {
    animation-timing-function: cubic-bezier(0.5, 0, 0.5, 1);
    transform: translateY(155.313px) translate(120px, 42.561px) scaleX(1) scaleY(1) translate(-120px, -42.561px);
  }
  51.83% {
    animation-timing-function: cubic-bezier(0.5, 0, 0.5, 1);
    transform: translateY(155.313px) translate(120px, 42.561px) scaleX(0.8) scaleY(0.8) translate(-120px, -42.561px);
  }
  52.59% {
    animation-timing-function: cubic-bezier(0.5, 0, 0.5, 1);
    transform: translateY(155.313px) translate(120px, 42.561px) scaleX(1) scaleY(1) translate(-120px, -42.561px);
  }
  53.22% {
    animation-timing-function: cubic-bezier(0.5, 0, 0.5, 1);
    transform: translateY(155.313px) translate(120px, 42.561px) scaleX(0.8) scaleY(0.8) translate(-120px, -42.561px);
  }
  53.97% {
    animation-timing-function: cubic-bezier(0.5, 0, 0.5, 1);
    transform: translateY(155.313px) translate(120px, 42.561px) scaleX(1) scaleY(1) translate(-120px, -42.561px);
  }
  54.6% {
    animation-timing-function: cubic-bezier(0.5, 0, 0.5, 1);
    transform: translateY(155.313px) translate(120px, 42.561px) scaleX(0.8) scaleY(0.8) translate(-120px, -42.561px);
  }
  55.36% {
    animation-timing-function: cubic-bezier(0.5, 0, 0.5, 1);
    transform: translateY(155.313px) translate(120px, 42.561px) scaleX(1) scaleY(1) translate(-120px, -42.561px);
  }
  55.99% {
    animation-timing-function: cubic-bezier(0.5, 0, 0.5, 1);
    transform: translateY(155.313px) translate(120px, 42.561px) scaleX(0.8) scaleY(0.8) translate(-120px, -42.561px);
  }
  56.75% {
    animation-timing-function: cubic-bezier(0.5, 0, 0.5, 1);
    transform: translateY(155.313px) translate(120px, 42.561px) scaleX(1) scaleY(1) translate(-120px, -42.561px);
  }
  57.38% {
    animation-timing-function: cubic-bezier(0.5, 0, 0.5, 1);
    transform: translateY(155.313px) translate(120px, 42.561px) scaleX(0.8) scaleY(0.8) translate(-120px, -42.561px);
  }
  58.13% {
    animation-timing-function: cubic-bezier(0.5, 0, 0.5, 1);
    transform: translateY(155.313px) translate(120px, 42.561px) scaleX(1) scaleY(1) translate(-120px, -42.561px);
  }
  58.64% {
    animation-timing-function: cubic-bezier(0.5, 0, 0.5, 1);
    transform: translateY(155.313px) translate(120px, 42.561px) scaleX(0.8) scaleY(0.8) translate(-120px, -42.561px);
  }
  59.39% {
    animation-timing-function: cubic-bezier(0.5, 0, 0.5, 1);
    transform: translateY(155.313px) translate(120px, 42.561px) scaleX(1) scaleY(1) translate(-120px, -42.561px);
  }
  60.03% {
    animation-timing-function: cubic-bezier(0.5, 0, 0.5, 1);
    transform: translateY(155.313px) translate(120px, 42.561px) scaleX(0.8) scaleY(0.8) translate(-120px, -42.561px);
  }
  60.78% {
    animation-timing-function: cubic-bezier(0.5, 0, 0.5, 1);
    transform: translateY(155.313px) translate(120px, 42.561px) scaleX(1) scaleY(1) translate(-120px, -42.561px);
  }
  61.41% {
    animation-timing-function: cubic-bezier(0.5, 0, 0.5, 1);
    transform: translateY(155.313px) translate(120px, 42.561px) scaleX(0.8) scaleY(0.8) translate(-120px, -42.561px);
  }
  62.17% {
    animation-timing-function: cubic-bezier(0.5, 0, 0.5, 1);
    transform: translateY(155.313px) translate(120px, 42.561px) scaleX(1) scaleY(1) translate(-120px, -42.561px);
  }
  62.8% {
    animation-timing-function: cubic-bezier(0.5, 0, 0.5, 1);
    transform: translateY(155.313px) translate(120px, 42.561px) scaleX(0.8) scaleY(0.8) translate(-120px, -42.561px);
  }
  63.56% {
    animation-timing-function: cubic-bezier(0.5, 0, 0.5, 1);
    transform: translateY(155.313px) translate(120px, 42.561px) scaleX(1) scaleY(1) translate(-120px, -42.561px);
  }
  64.19% {
    animation-timing-function: cubic-bezier(0.5, 0, 0.5, 1);
    transform: translateY(155.313px) translate(120px, 42.561px) scaleX(0.8) scaleY(0.8) translate(-120px, -42.561px);
  }
  64.94% {
    animation-timing-function: cubic-bezier(0.5, 0, 0.5, 1);
    transform: translateY(155.313px) translate(120px, 42.561px) scaleX(1) scaleY(1) translate(-120px, -42.561px);
  }
  65.57% {
    animation-timing-function: cubic-bezier(0.5, 0, 0.5, 1);
    transform: translateY(155.313px) translate(120px, 42.561px) scaleX(0.8) scaleY(0.8) translate(-120px, -42.561px);
  }
  66.33% {
    animation-timing-function: cubic-bezier(0.5, 0, 0.5, 1);
    transform: translateY(155.313px) translate(120px, 42.561px) scaleX(1) scaleY(1) translate(-120px, -42.561px);
  }
  66.96% {
    animation-timing-function: cubic-bezier(0.5, 0, 0.5, 1);
    transform: translateY(155.313px) translate(120px, 42.561px) scaleX(0.8) scaleY(0.8) translate(-120px, -42.561px);
  }
  67.72% {
    animation-timing-function: cubic-bezier(0.5, 0, 0.5, 1);
    transform: translateY(155.313px) translate(120px, 42.561px) scaleX(1) scaleY(1) translate(-120px, -42.561px);
  }
  68.35% {
    animation-timing-function: cubic-bezier(0.5, 0, 0.5, 1);
    transform: translateY(155.313px) translate(120px, 42.561px) scaleX(0.8) scaleY(0.8) translate(-120px, -42.561px);
  }
  69.1% {
    animation-timing-function: cubic-bezier(0.5, 0, 0.5, 1);
    transform: translateY(155.313px) translate(120px, 42.561px) scaleX(1) scaleY(1) translate(-120px, -42.561px);
  }
  69.74% {
    animation-timing-function: cubic-bezier(0.5, 0, 0.5, 1);
    transform: translateY(155.313px) translate(120px, 42.561px) scaleX(0.8) scaleY(0.8) translate(-120px, -42.561px);
  }
  70.49% {
    animation-timing-function: cubic-bezier(0.5, 0, 0.5, 1);
    transform: translateY(155.313px) translate(120px, 42.561px) scaleX(1) scaleY(1) translate(-120px, -42.561px);
  }
  71% {
    animation-timing-function: cubic-bezier(0.5, 0, 0.5, 1);
    transform: translateY(155.313px) translate(120px, 42.561px) scaleX(0.8) scaleY(0.8) translate(-120px, -42.561px);
  }
  71.75% {
    animation-timing-function: cubic-bezier(0.5, 0, 0.5, 1);
    transform: translateY(155.313px) translate(120px, 42.561px) scaleX(1) scaleY(1) translate(-120px, -42.561px);
  }
  72.38% {
    animation-timing-function: cubic-bezier(0.5, 0, 0.5, 1);
    transform: translateY(155.313px) translate(120px, 42.561px) scaleX(0.8) scaleY(0.8) translate(-120px, -42.561px);
  }
  73.14% {
    animation-timing-function: cubic-bezier(0.5, 0, 0.5, 1);
    transform: translateY(155.313px) translate(120px, 42.561px) scaleX(1) scaleY(1) translate(-120px, -42.561px);
  }
  73.77% {
    animation-timing-function: cubic-bezier(0.5, 0, 0.5, 1);
    transform: translateY(155.313px) translate(120px, 42.561px) scaleX(0.8) scaleY(0.8) translate(-120px, -42.561px);
  }
  74.53% {
    animation-timing-function: cubic-bezier(0.5, 0, 0.5, 1);
    transform: translateY(155.313px) translate(120px, 42.561px) scaleX(1) scaleY(1) translate(-120px, -42.561px);
  }
  75.28% {
    animation-timing-function: cubic-bezier(0.5, 0, 0.5, 1);
    transform: translateY(155.313px) translate(120px, 42.561px) scaleX(0.8) scaleY(0.8) translate(-120px, -42.561px);
  }
  76.04% {
    animation-timing-function: cubic-bezier(0.5, 0, 0.5, 1);
    transform: translateY(155.313px) translate(120px, 42.561px) scaleX(1) scaleY(1) translate(-120px, -42.561px);
  }
  76.67% {
    animation-timing-function: cubic-bezier(0.5, 0, 0.5, 1);
    transform: translateY(155.313px) translate(120px, 42.561px) scaleX(0.8) scaleY(0.8) translate(-120px, -42.561px);
  }
  77.43% {
    animation-timing-function: cubic-bezier(0.5, 0, 0.5, 1);
    transform: translateY(155.313px) translate(120px, 42.561px) scaleX(1) scaleY(1) translate(-120px, -42.561px);
  }
  78.06% {
    animation-timing-function: cubic-bezier(0.5, 0, 0.5, 1);
    transform: translateY(155.313px) translate(120px, 42.561px) scaleX(0.8) scaleY(0.8) translate(-120px, -42.561px);
  }
  78.81% {
    animation-timing-function: cubic-bezier(0.5, 0, 0.5, 1);
    transform: translateY(155.313px) translate(120px, 42.561px) scaleX(1) scaleY(1) translate(-120px, -42.561px);
  }
  79.45% {
    animation-timing-function: cubic-bezier(0.5, 0, 0.5, 1);
    transform: translateY(155.313px) translate(120px, 42.561px) scaleX(0.8) scaleY(0.8) translate(-120px, -42.561px);
  }
  80.2% {
    animation-timing-function: cubic-bezier(0.5, 0, 0.5, 1);
    transform: translateY(155.313px) translate(120px, 42.561px) scaleX(1) scaleY(1) translate(-120px, -42.561px);
  }
  80.83% {
    animation-timing-function: cubic-bezier(0.5, 0, 0.5, 1);
    transform: translateY(155.313px) translate(120px, 42.561px) scaleX(0.8) scaleY(0.8) translate(-120px, -42.561px);
  }
  81.59% {
    animation-timing-function: cubic-bezier(0.5, 0, 0.5, 1);
    transform: translateY(155.313px) translate(120px, 42.561px) scaleX(1) scaleY(1) translate(-120px, -42.561px);
  }
  82.22% {
    animation-timing-function: cubic-bezier(0.5, 0, 0.5, 1);
    transform: translateY(155.313px) translate(120px, 42.561px) scaleX(0.8) scaleY(0.8) translate(-120px, -42.561px);
  }
  82.98% {
    animation-timing-function: cubic-bezier(0.5, 0, 0.5, 1);
    transform: translateY(155.313px) translate(120px, 42.561px) scaleX(1) scaleY(1) translate(-120px, -42.561px);
  }
  83.48% {
    animation-timing-function: cubic-bezier(0.5, 0, 0.5, 1);
    transform: translateY(155.313px) translate(120px, 42.561px) scaleX(0.8) scaleY(0.8) translate(-120px, -42.561px);
  }
  84.24% {
    animation-timing-function: cubic-bezier(0.5, 0, 0.5, 1);
    transform: translateY(155.313px) translate(120px, 42.561px) scaleX(1) scaleY(1) translate(-120px, -42.561px);
  }
  84.87% {
    animation-timing-function: cubic-bezier(0.5, 0, 0.5, 1);
    transform: translateY(155.313px) translate(120px, 42.561px) scaleX(0.8) scaleY(0.8) translate(-120px, -42.561px);
  }
  85.62% {
    animation-timing-function: cubic-bezier(0.5, 0, 0.5, 1);
    transform: translateY(155.313px) translate(120px, 42.561px) scaleX(1) scaleY(1) translate(-120px, -42.561px);
  }
  86.25% {
    animation-timing-function: cubic-bezier(0.5, 0, 0.5, 1);
    transform: translateY(155.313px) translate(120px, 42.561px) scaleX(0.8) scaleY(0.8) translate(-120px, -42.561px);
  }
  87.01% {
    animation-timing-function: cubic-bezier(0.5, 0, 0.5, 1);
    transform: translateY(155.313px) translate(120px, 42.561px) scaleX(1) scaleY(1) translate(-120px, -42.561px);
  }
  87.64% {
    animation-timing-function: cubic-bezier(0.5, 0, 0.5, 1);
    transform: translateY(155.313px) translate(120px, 42.561px) scaleX(0.8) scaleY(0.8) translate(-120px, -42.561px);
  }
  88.4% {
    animation-timing-function: cubic-bezier(0.5, 0, 0.5, 1);
    transform: translateY(155.313px) translate(120px, 42.561px) scaleX(1) scaleY(1) translate(-120px, -42.561px);
  }
  89.03% {
    animation-timing-function: cubic-bezier(0.5, 0, 0.5, 1);
    transform: translateY(155.313px) translate(120px, 42.561px) scaleX(0.8) scaleY(0.8) translate(-120px, -42.561px);
  }
  89.79% {
    animation-timing-function: cubic-bezier(0.5, 0, 0.5, 1);
    transform: translateY(155.313px) translate(120px, 42.561px) scaleX(1) scaleY(1) translate(-120px, -42.561px);
  }
  90.42% {
    animation-timing-function: cubic-bezier(0.5, 0, 0.5, 1);
    transform: translateY(155.313px) translate(120px, 42.561px) scaleX(0.8) scaleY(0.8) translate(-120px, -42.561px);
  }
  91.17% {
    animation-timing-function: cubic-bezier(0.5, 0, 0.5, 1);
    transform: translateY(155.313px) translate(120px, 42.561px) scaleX(1) scaleY(1) translate(-120px, -42.561px);
  }
  91.8% {
    animation-timing-function: cubic-bezier(0.5, 0, 0.5, 1);
    transform: translateY(155.313px) translate(120px, 42.561px) scaleX(0.8) scaleY(0.8) translate(-120px, -42.561px);
  }
  92.56% {
    animation-timing-function: cubic-bezier(0.5, 0, 0.5, 1);
    transform: translateY(155.313px) translate(120px, 42.561px) scaleX(1) scaleY(1) translate(-120px, -42.561px);
  }
  93.19% {
    animation-timing-function: cubic-bezier(0.5, 0, 0.5, 1);
    transform: translateY(155.313px) translate(120px, 42.561px) scaleX(0.8) scaleY(0.8) translate(-120px, -42.561px);
  }
  93.95% {
    animation-timing-function: cubic-bezier(0.5, 0, 0.5, 1);
    transform: translateY(155.313px) translate(120px, 42.561px) scaleX(1) scaleY(1) translate(-120px, -42.561px);
  }
  94.58% {
    animation-timing-function: cubic-bezier(0.5, 0, 0.5, 1);
    transform: translateY(155.313px) translate(120px, 42.561px) scaleX(0.8) scaleY(0.8) translate(-120px, -42.561px);
  }
  95.33% {
    animation-timing-function: cubic-bezier(0.5, 0, 0.5, 1);
    transform: translateY(155.313px) translate(120px, 42.561px) scaleX(1) scaleY(1) translate(-120px, -42.561px);
  }
  95.84% {
    animation-timing-function: cubic-bezier(0.5, 0, 0.5, 1);
    transform: translateY(155.313px) translate(120px, 42.561px) scaleX(0.8) scaleY(0.8) translate(-120px, -42.561px);
  }
  96.6% {
    animation-timing-function: cubic-bezier(0.5, 0, 0.5, 1);
    transform: translateY(155.313px) translate(120px, 42.561px) scaleX(1) scaleY(1) translate(-120px, -42.561px);
  }
  97.23% {
    animation-timing-function: cubic-bezier(0.5, 0, 0.5, 1);
    transform: translateY(155.313px) translate(120px, 42.561px) scaleX(0.8) scaleY(0.8) translate(-120px, -42.561px);
  }
  97.98% {
    animation-timing-function: cubic-bezier(0.5, 0, 0.5, 1);
    transform: translateY(155.313px) translate(120px, 42.561px) scaleX(1) scaleY(1) translate(-120px, -42.561px);
  }
  98.61% {
    animation-timing-function: cubic-bezier(0.5, 0, 0.5, 1);
    transform: translateY(155.313px) translate(120px, 42.561px) scaleX(0.8) scaleY(0.8) translate(-120px, -42.561px);
  }
  99.37% {
    animation-timing-function: cubic-bezier(0.5, 0, 0.5, 1);
    transform: translateY(155.313px) translate(120px, 42.561px) scaleX(1) scaleY(1) translate(-120px, -42.561px);
  }
  100% {
    transform: translateY(155.313px) translate(120px, 42.561px) scaleX(0.8) scaleY(0.8) translate(-120px, -42.561px);
  }
}
#Wings {
  transform-origin: 0 0;
  animation: kf_Wings_transform_0 0.798931s linear infinite;
}
@keyframes kf_Right_Eye_transform_0 {
  0% {
    animation-timing-function: cubic-bezier(0.5, 0, 0.5, 1);
    transform: translateX(163.901px) translateY(114.137px) translate(18.555px, 26.915px) scaleX(1) scaleY(1) translate(-18.555px, -26.915px);
  }
  73.43% {
    animation-timing-function: cubic-bezier(0.5, 0, 0.5, 1);
    transform: translateX(163.901px) translateY(114.137px) translate(18.555px, 26.915px) scaleX(1.2) scaleY(1.2) translate(-18.555px, -26.915px);
  }
  100% {
    transform: translateX(163.901px) translateY(114.137px) translate(18.555px, 26.915px) scaleX(1) scaleY(1) translate(-18.555px, -26.915px);
  }
}
#Right_Eye {
  transform-origin: 0 0;
  animation: kf_Right_Eye_transform_0 0.798931s linear infinite;
}
</style>
<g id="Idetentifying" clip-path="url(#clip0_2339_4270)">
<path id="Shadow" transform="translate(130.17 432.933)" d="M30 8C46.5685 8 60 6.20914 60 4C60 1.79086 46.5685 0 30 0C13.4315 0 0 1.79086 0 4C0 6.20914 13.4315 8 30 8Z" fill="#8A5611"/>
<g id="Bee_Body" transform="translate(26 -1.3125)">
<g id="Wings" transform="translate(0 155.312)">
<path id="Right_Wing" transform="translate(142.062 1.52588e-05)" d="M53.884 5.57167C59.8864 2.90067 69.1444 -0.475332 77.6968 0.0556681C81.9356 0.318668 85.8845 1.53566 89.1743 4.15366C92.4387 6.75166 95.2259 10.8657 96.9701 17.2797C99.7372 27.4577 96.4297 39.9197 88.851 51.7197C81.3205 63.4467 69.8482 74.0467 57.187 80.3047C50.1856 83.7647 36.4822 85.9617 24.0231 84.8147C17.8178 84.2427 12.1159 82.8557 7.8129 80.5277C3.50991 78.1997 0.907202 75.1147 0.191941 71.2627C-0.541773 67.3127 0.834274 61.8307 4.21287 55.2967C7.53172 48.8767 12.5385 41.9117 18.3353 35.2087C29.9728 21.7497 44.3905 9.79567 53.884 5.57167Z" fill="#CDF0F6" fill-opacity="0.65" stroke="#28899A" stroke-width="5"/>
<path id="Left_Wing" d="M44.0536 5.57167C38.051 2.90067 28.7936 -0.475332 20.2413 0.0556681C16.002 0.318668 12.0532 1.53566 8.76351 4.15366C5.49923 6.75166 2.71208 10.8657 0.96795 17.2797C-1.79934 27.4577 1.508 39.9197 9.08634 51.7197C16.6175 63.4467 28.0898 74.0467 40.7506 80.3047C47.7518 83.7647 61.4557 85.9617 73.9144 84.8147C80.1203 84.2427 85.8222 82.8557 90.1252 80.5277C94.4282 78.1997 97.03 75.1147 97.7461 71.2627C98.4799 67.3127 97.1038 61.8307 93.7252 55.2967C90.4055 48.8767 85.3987 41.9117 79.6028 35.2087C67.9652 21.7497 53.547 9.79567 44.0536 5.57167Z" fill="#CDF0F6" fill-opacity="0.65" stroke="#28899A" stroke-width="5"/>
</g>
<path id="Vector" transform="translate(176.566 209.454)" d="M31.7179 3.02537C23.1456 19.3984 10.9409 14.6474 5.79495 10.1024C-0.528948 10.8054 -0.711139 23.5064 0.753375 30.4104C0.826256 30.7574 0.968072 31.0824 1.16209 31.3784L8.02473 41.8294C8.45413 42.4844 9.12582 42.9484 9.89008 43.0814C27.5214 46.1584 40.0175 33.8284 44.5184 26.5864C44.7715 26.1804 45.1024 25.8314 45.5043 25.5764L50.1125 22.6524C51.5347 21.7494 51.9326 19.8264 50.9871 18.4184L39.4985 1.31037C38.6663 0.070372 37.0589 -0.35464 35.7362 0.31736L33.0554 1.67736C32.4842 1.96836 32.0183 2.45237 31.7179 3.02537Z" fill="#2F2724"/>
<path id="Vector_2" transform="translate(176.566 209.454)" d="M5.76043 10.0714C10.8867 14.6254 23.1258 19.4354 31.7179 3.02537C32.0183 2.45237 32.4841 1.96836 33.0553 1.67736L35.7362 0.31736C37.0589 -0.35464 38.6662 0.070372 39.4984 1.31037L50.987 18.4184C51.9325 19.8264 51.5346 21.7494 50.1124 22.6524L45.5042 25.5764C45.1024 25.8314 44.7714 26.1804 44.5183 26.5864C40.0174 33.8284 27.5213 46.1584 9.89002 43.0814C9.12575 42.9484 8.45407 42.4844 8.02466 41.8294L1.16203 31.3784C0.968005 31.0824 0.826189 30.7574 0.753308 30.4104C-0.753555 23.3084 -0.516212 10.0714 6.35528 10.0714" stroke="black" stroke-width="5"/>
<path id="Vector_3" transform="translate(125.715 301.971)" d="M22.5005 49.6959C31.1103 39.3649 35.8712 16.2369 35.2192 5.97286C24.2625 -7.53714 5.86987 4.99586 0 12.9429C0 27.2459 3.91291 41.4179 5.86987 46.7159C11.3487 58.6359 19.2396 53.6689 22.5005 49.6959Z" fill="#2C2626" stroke="black" stroke-width="5"/>
<path id="Vector_4" transform="translate(33.5769 297.529)" d="M24.9912 0L40.8944 18.454L0 25.374L24.9912 0Z" fill="#2C2626" stroke="black" stroke-width="5"/>
<path id="Vector_5" transform="translate(48.5172 208.344)" d="M90.6852 120.437C149.559 91.437 138.621 55.87 132.752 11.171C89.6383 20.803 42.245 7.266 32.3411 0C-1.83489 27.316 -2.2444 64.18 1.65955 82.69C19.8036 134.612 69.1765 128.224 90.6852 120.437Z" fill="#2C2626" stroke="black" stroke-width="5"/>
<path id="Vector_6" transform="translate(51.5463 61.5862)" d="M7.43241 51.1918C-12.9164 106.024 13.3018 137.611 28.9554 146.551C71.2175 171.98 117.655 161.12 135.59 152.511C172.374 137.413 176.476 110.427 171.203 94.3658C169.246 88.4058 167.29 86.4198 167.29 74.4998C164.943 27.6145 130.699 10.1343 114.068 5.49878C50.673 -15.1624 16.5637 27.3519 7.43241 51.1918Z" fill="#FDE68A" stroke="black" stroke-width="5"/>
<path id="Vector_7" transform="translate(190.465 158.932)" d="M29.3494 8.93999C29.3494 13.878 24.4585 17.88 14.6747 17.88C6.57013 17.88 0 14.9 0 8.93999C0 2.97999 6.57013 0 14.6747 0C22.7793 0 29.3494 2.97999 29.3494 8.93999Z" fill="#FA9C90"/>
<path id="Vector_8" transform="translate(104.375 123.172)" d="M14.6746 39.733C22.7791 39.733 29.3492 30.8385 29.3492 19.8665C29.3492 8.89454 22.7791 0 14.6746 0C6.57004 0 0 8.89454 0 19.8665C0 30.8385 6.57004 39.733 14.6746 39.733Z" fill="#281E1F"/>
<path id="Vector_9" transform="translate(118.071 129.132)" d="M4.89153 9.93326C7.59304 9.93326 9.78305 7.70962 9.78305 4.96663C9.78305 2.22364 7.59304 0 4.89153 0C2.19001 0 0 2.22364 0 4.96663C0 7.70962 2.19001 9.93326 4.89153 9.93326Z" fill="white"/>
<path id="Vector_10" transform="translate(142.346 168.702)" d="M0 10.0974C2.93494 5.13039 15.6527 -6.78961 27.3924 5.13039" stroke="black" stroke-width="5" stroke-linecap="round"/>
<path id="Vector_11" transform="translate(53.8421 75.4928)" d="M34.8795 121.186C-13.0572 82.4462 20.8568 20.8599 40.7494 0C15.7049 12.7146 3.60232 44.3682 0.667478 59.5992C-6.20904 124.166 41.7283 142.377 67.1638 145.025C120.384 152.177 151.624 127.477 160.103 115.226C103.753 153.369 56.3745 136.086 34.8795 121.186Z" fill="#FBB800"/>
<path id="Vector_12" transform="translate(84.8086 160.919)" d="M29.3494 8.93999C29.3494 13.877 24.4575 17.88 14.6747 17.88C6.57012 17.88 0 14.9 0 8.93999C0 2.97999 6.57012 0 14.6747 0C22.7792 0 29.3494 2.97999 29.3494 8.93999Z" fill="#FA9C90"/>
<path id="Vector_13" transform="translate(108.288)" d="M10.7618 76.3327C6.06587 82.6899 2.28294 78.9815 0.97798 76.3327L0 50.5062C0 25.673 9.7828 15.8932 13.6957 10.7731C24.4575 -1.14681 30.0014 -0.815697 33.2623 0.839847C48.133 11.1704 36.1972 23.6864 24.4575 31.633C8.8048 43.5529 9.13081 63.0883 10.7618 76.3327Z" fill="black"/>
<path id="Vector_14" transform="translate(159.596 16.2341)" d="M8.79595 61.1569C1.83384 64.7868 0.0305312 59.7716 0 56.8102L10.2506 33.153C20.9533 10.8237 32.8654 6.39936 39.6896 3.51146C54.5032 -2.42524 59.3458 0.335559 61.5638 3.27306C70.4828 19.1691 54.3564 25.1202 40.3761 27.0495C21.164 30.8129 13.0378 48.5235 8.79595 61.1569Z" fill="black"/>
<path id="Vector_15" transform="translate(58.2115 224.492)" d="M122.288 11.92C79.5944 40.453 30.5544 12.588 11.7393 0C8.66053 3.147 1.36829 15.909 0 21.853C53.3661 59.617 104.452 50.978 123.267 38.74C125.223 30.793 124.34 16.116 122.288 11.92Z" fill="#FDE68A"/>
<path id="Vector_16" transform="translate(52.4595 266.528)" d="M122.947 24.3385C71.5177 47.4425 22.9367 29.9795 2.19985 0.207473C2.01469 -0.0585272 1.63798 -0.0775086 1.47281 0.201491C-0.769163 3.99349 -0.00292971 15.4605 0.8483 19.4935C0.856672 19.5335 0.869772 19.5695 0.887697 19.6065C19.4394 57.4655 86.7725 56.0055 106.367 44.1235C107.147 43.6505 107.819 43.0625 108.46 42.4085C114.743 35.9895 121.149 29.1465 123.542 24.9565C123.768 24.5605 123.36 24.1535 122.947 24.3385Z" fill="#FDE68A"/>
<path id="Vector_17" transform="translate(70.9297 190.719)" d="M34.9543 28.1479C33.2101 43.0179 23.6961 36.8048 21.5974 32.1358C21.361 31.6088 20.7927 31.2629 20.2451 31.4209L1.27736 36.9239C0.929697 37.0249 0.661812 37.3199 0.589916 37.6799C-3.62044 58.7149 15.7305 67.8359 26.1495 67.8809C53.1686 67.9979 57.2825 48.0679 58.4338 39.0739C59.1695 33.3279 66.6083 33.9858 67.2386 33.1138C75.548 21.6188 65.5446 20.1579 63.3247 17.2209C61.283 14.5199 62 11.2609 63.3247 10.2679C69.621 5.54685 67.475 1.19685 65.2816 0.334855C56.7299 -3.02815 46.693 20.1989 44.9902 13.8579C42.0552 2.93185 34.2885 7.16785 34.9543 11.2608C36.278 19.3959 35.6348 22.3449 34.9543 28.1479Z" fill="#2C2626" stroke="black" stroke-width="5"/>
<path id="Vector_18" transform="translate(84.6256 307.931)" d="M8.97697 49.683C0.368147 39.352 -0.479836 16.241 0.172154 5.97696C11.1289 -7.53304 25.6086 4.98296 31.4785 12.93C31.4785 27.234 27.5646 41.405 25.6086 46.703C20.1297 58.623 12.2379 53.656 8.97697 49.683Z" fill="#2C2626" stroke="black" stroke-width="5"/>
<path id="Vector_19" transform="translate(186.857 268.138)" d="M14.5467 11.0998C13.5588 0.926817 4.77076 -0.275183 1.51869 0.0438173L1.06761 0.115808L0 7.86181L8.10063 14.5248C11.7368 17.8248 14.2069 13.3188 14.5467 11.0998Z" fill="#8A5611" stroke="black" stroke-width="2.04539"/>
<path id="Vector_20" transform="translate(181.429 275.587)" d="M18.5915 9.9871C19.0141 3.4221 14.3684 1.14208 12.443 0.368077C6.00776 -1.61092 2.06825 4.84908 0.901172 8.81208L0 22.8121C4.27634 35.2161 15.1159 30.9261 17.5653 25.9181L18.5915 9.9871Z" fill="#8A5611" stroke="black" stroke-width="2.44"/>
<path id="Vector_21" transform="translate(47.4937 267.071)" d="M132.826 13.4821C96.0048 28.3751 28.39 10.4841 5.60347 0.324054C3.11468 -0.784946 0 1.09007 0 3.85707V14.3761C0 15.6431 0.667551 16.7981 1.76756 17.3871C32.4891 33.8421 80.9421 49.6721 134.051 34.1091C135.386 33.7171 136.363 32.5361 136.522 31.1391L138.095 17.2921C138.414 14.4761 135.434 12.4271 132.826 13.4821Z" fill="#8A5611" stroke="black" stroke-width="2.32849"/>
<path id="Vector_22" transform="translate(53.4292 275.304)" d="M2.69506 30.988C-1.5802 26.458 0.139986 13.425 1.69009 7.77703C1.74977 7.55903 1.83594 7.35605 1.94595 7.15905L5.11894 1.48604C5.63364 0.566044 6.59911 -0.00397909 7.63727 2.09146e-05L29.2866 0.0890407C29.845 0.0910407 30.3877 0.260033 30.8486 0.575033L32.122 1.44503C32.9749 2.02803 33.4408 3.03904 33.3384 4.08404L30.9953 28.001C30.9441 28.527 30.753 29.038 30.4202 29.448C22.6534 39.024 8.80228 34.742 3.13874 31.339C2.97436 31.241 2.82693 31.128 2.69506 30.988Z" fill="#8A5611" stroke="black" stroke-width="2.88236"/>
<path id="Vector_23" transform="translate(55.3115 265.959)" d="M23.5682 20.7897C25.5813 19.0347 30.3156 14.6227 31.5644 12.3187C32.4498 10.6877 29.8626 8.44173 28.9141 7.14473C28.7319 6.89773 28.5566 6.64174 28.335 6.42974C22.3342 0.699735 13.5343 -0.226272 9.58097 0.0407275C9.41354 0.0517275 9.24513 0.0827402 9.08164 0.12874C-1.6298 3.16474 -0.72746 12.4687 1.18025 17.0817C1.27086 17.3007 1.39623 17.5057 1.54574 17.6877C9.02648 26.8257 19.7715 24.0987 23.5682 20.7897Z" fill="#8A5611" stroke="black" stroke-width="2.88236"/>
<path id="Vector_24" transform="matrix(0.996238 0.0866669 -0.0974917 0.995236 63.6118 277.671)" d="M2.09432 5.99272C3.25099 5.99272 4.18865 4.6512 4.18865 2.99636C4.18865 1.34152 3.25099 0 2.09432 0C0.937661 0 0 1.34152 0 2.99636C0 4.6512 0.937661 5.99272 2.09432 5.99272Z" fill="black"/>
<path id="Right_Eye" transform="translate(163.901 114.137)" d="M18.5553 53.829C28.8032 53.829 37.1107 41.779 37.1107 26.9145C37.1107 12.05 28.8032 0 18.5553 0C8.3075 0 0 12.05 0 26.9145C0 41.779 8.3075 53.829 18.5553 53.829Z" fill="#281E1F"/>
<path id="Vector_25" transform="translate(177.929 124.535)" d="M7.46263 15.1544C11.5841 15.1544 14.9253 11.762 14.9253 7.57721C14.9253 3.39243 11.5841 0 7.46263 0C3.34113 0 0 3.39243 0 7.57721C0 11.762 3.34113 15.1544 7.46263 15.1544Z" fill="white"/>
<g id="Lens" transform="matrix(0.999952 -0.00984181 0.00954644 0.999954 145.91 105.186)">
<path id="Vector_26" transform="translate(50.7767 74.7439)" d="M0.0440818 3.41007C-0.414872 0.727072 2.81356 -1.12693 4.91037 0.785072L14.833 9.83006C16.3104 11.1781 16.0287 13.571 14.2687 14.53L6.61027 18.705C4.82862 19.676 2.64121 18.592 2.30537 16.631L0.0440818 3.41007Z" fill="#D9D9D9" stroke="black" stroke-width="2"/>
<path id="Vector_27" transform="translate(52.8596 83.2145)" d="M3.02538 16.1173C0.919707 12.9104 0.171196 9.82235 0.00672137 7.64036C-0.101615 6.21436 1.1157 5.23836 2.50143 4.98536C4.84741 4.55736 6.39268 3.50737 7.37658 2.30337C8.71109 0.669377 10.997 -0.820633 12.6181 0.519365C14.6312 2.18136 16.0878 4.11737 16.7221 5.19137L36.6521 41.8083C37.0549 42.5493 37.2765 43.3823 37.2362 44.2263C36.6699 56.0713 28.189 55.0383 22.9022 52.5463C22.0434 52.1423 21.3786 51.4253 20.9364 50.5753L3.02538 16.1173Z" fill="#29ADB9" stroke="black" stroke-width="2"/>
<g id="Mask_group">
<mask id="mask0_2339_4270" style="mask-type:luminance" maskUnits="userSpaceOnUse" x="0" y="0" width="282" height="452">
<g id="Group">
<path id="Vector_28" d="M78.2644 39.7329C78.2644 61.6769 60.7444 79.4659 39.1322 79.4659C17.52 79.4659 0 61.6769 0 39.7329C0 17.789 17.52 0 39.1322 0C60.7444 0 78.2644 17.789 78.2644 39.7329ZM8.51429 39.7329C8.51429 56.9019 22.2228 70.8209 39.1322 70.8209C56.0426 70.8209 69.7502 56.9019 69.7502 39.7329C69.7502 22.563 56.0426 8.64499 39.1322 8.64499C22.2228 8.64499 8.51429 22.563 8.51429 39.7329Z" fill="white"/>
</g>
</mask>
<g mask="url(#mask0_2339_4270)">
<g id="Group_2">
<path id="Vector_29" d="M78.2644 39.7329C78.2644 61.6769 60.7444 79.4659 39.1322 79.4659C17.52 79.4659 0 61.6769 0 39.7329C0 17.789 17.52 0 39.1322 0C60.7444 0 78.2644 17.789 78.2644 39.7329ZM8.51429 39.7329C8.51429 56.9019 22.2228 70.8209 39.1322 70.8209C56.0426 70.8209 69.7502 56.9019 69.7502 39.7329C69.7502 22.563 56.0426 8.64499 39.1322 8.64499C22.2228 8.64499 8.51429 22.563 8.51429 39.7329Z" fill="#D9D9D9" stroke="black" stroke-width="4"/>
</g>
</g>
</g>
<path id="Vector_30" transform="translate(8.07265 8.19664)" d="M31.0596 63.0727C48.2133 63.0727 62.1191 48.9534 62.1191 31.5364C62.1191 14.1193 48.2133 0 31.0596 0C13.9058 0 0 14.1193 0 31.5364C0 48.9534 13.9058 63.0727 31.0596 63.0727Z" fill="white" fill-opacity="0.5" stroke="black" stroke-width="0.5"/>
</g>
<path id="Vector_31" transform="translate(214.595 192.454)" d="M3.45632 1.20291C5.92837 -0.452087 8.4408 -0.317079 10.9798 1.10492C13.636 2.59292 16.2046 5.47091 18.133 8.99191C20.0289 12.4509 20.9054 16.1169 20.6976 19.0409C20.4927 21.9169 19.3138 23.7479 17.348 24.5379C14.5185 25.6739 12.0297 25.4919 9.80976 24.3519C7.50909 23.1709 5.28623 20.8439 3.36276 17.3339C1.36149 13.6799 0.0988611 10.1899 0.00529771 7.34192C-0.0390218 5.95592 0.19539 4.80291 0.683889 3.85591C1.16352 2.92591 1.96324 2.04692 3.28888 1.30492L3.37457 1.25792L3.45632 1.20291Z" fill="#2F2724" stroke="black" stroke-width="5"/>
<g id="Group_3" transform="translate(126.936 281.701)">
<path id="Vector_32" d="M0.57548 5.39362C0.65624 2.67362 2.84956 0.479627 5.53039 0.437627L32.9829 0.0006157C35.7878 -0.0433843 38.0412 2.27662 37.9565 5.12262L37.406 23.7266C37.3272 26.3926 35.2166 28.5626 32.5899 28.6796L5.11575 29.8936C2.25665 30.0196 -0.0834038 27.6776 0.00228059 24.7756L0.57548 5.39362Z" fill="#D1D3D2"/>
<path id="Vector_33" transform="translate(0.993182 1.00903)" d="M31.9907 0.000515285C34.2352 -0.0354847 36.0375 1.81952 35.9706 4.09652L35.42 22.7005C35.357 24.8335 33.6689 26.5705 31.5682 26.6635L4.09302 27.8775C1.80515 27.9785 -0.0670965 26.1055 0.00184498 23.7835L0.575045 4.40051C0.640047 2.22451 2.39411 0.47052 4.53917 0.43652L31.9907 0.000515285Z" stroke="black" stroke-width="2.01659"/>
</g>
<g id="Group_4" transform="translate(133.493 287.18)">
<path id="Vector_34" d="M0.41006 3.05106C0.457334 1.43406 1.76919 0.135059 3.36273 0.124059L22.2556 6.60198e-05C23.9014 -0.010934 25.2162 1.35408 25.166 3.02408L24.774 16.2851C24.7267 17.8691 23.4661 19.1551 21.905 19.2101L2.99537 19.8831C1.31713 19.9431 -0.0488865 18.5641 0.00134229 16.8601L0.41006 3.05106Z" fill="#8A5611"/>
<path id="Vector_35" transform="translate(0.97743 0.990967)" d="M21.2713 4.00725e-05C22.3685 -0.00695993 23.245 0.904038 23.2125 2.01704L22.8195 15.2781C22.788 16.3341 21.9469 17.191 20.9069 17.228L1.99725 17.9001C0.878429 17.9401 -0.0325913 17.0211 0.000894535 15.8861L0.409627 2.07704C0.441143 0.999036 1.31571 0.13204 2.37839 0.12504L21.2713 4.00725e-05Z" stroke="black" stroke-width="1.98455"/>
</g>
</g>
</g>
<defs>
<clipPath id="clip0_2339_4270">
<rect width="282" height="452" fill="white"/>
</clipPath>
</defs>
</svg>
