<svg width="322" height="452" viewBox="0 0 322 452" fill="none" xmlns="http://www.w3.org/2000/svg">
<style>
@keyframes kf_Shadow_transform_0 {
  0% {
    animation-timing-function: cubic-bezier(0.5, 0, 0.5, 1);
    transform: translateX(130.17px) translateY(432.933px) translate(30px, 4px) scaleX(0.5) scaleY(0.5) translate(-30px, -4px) scaleX(1) scaleY(1);
  }
  50.06% {
    transform: translateX(130.17px) translateY(432.933px) translate(30px, 4px) scaleX(1) scaleY(1) translate(-30px, -4px) scaleX(1) scaleY(1);
  }
  100% {
    transform: translateX(130.17px) translateY(432.933px) translate(30px, 4px) scaleX(0.5) scaleY(0.5) translate(-30px, -4px) scaleX(1) scaleY(1);
  }
}
#Shadow {
  transform-origin: 0 0;
  animation: kf_Shadow_transform_0 0.8s linear infinite;
}
@keyframes kf_Bee_Body_transform_0 {
  0% {
    transform: translateX(20px) translateX(0px) translateY(0px);
  }
  50% {
    transform: translateX(20px) translateX(0px) translateY(20px);
  }
  100% {
    transform: translateX(20px) translateX(0px) translateY(0px);
  }
}
#Bee_Body {
  transform-origin: 0 0;
  animation: kf_Bee_Body_transform_0 0.8s linear infinite;
}
@keyframes kf_Wings_transform_0 {
  0% {
    animation-timing-function: cubic-bezier(0.5, 0, 0.5, 1);
    transform: translateY(156px) translate(120px, 42.561px) scaleX(1) scaleY(1) translate(-120px, -42.561px);
  }
  0.76% {
    animation-timing-function: cubic-bezier(0.5, 0, 0.5, 1);
    transform: translateY(156px) translate(120px, 42.561px) scaleX(0.8) scaleY(0.8) translate(-120px, -42.561px);
  }
  1.51% {
    animation-timing-function: cubic-bezier(0.5, 0, 0.5, 1);
    transform: translateY(156px) translate(120px, 42.561px) scaleX(1) scaleY(1) translate(-120px, -42.561px);
  }
  2.14% {
    animation-timing-function: cubic-bezier(0.5, 0, 0.5, 1);
    transform: translateY(156px) translate(120px, 42.561px) scaleX(0.8) scaleY(0.8) translate(-120px, -42.561px);
  }
  2.9% {
    animation-timing-function: cubic-bezier(0.5, 0, 0.5, 1);
    transform: translateY(156px) translate(120px, 42.561px) scaleX(1) scaleY(1) translate(-120px, -42.561px);
  }
  3.53% {
    animation-timing-function: cubic-bezier(0.5, 0, 0.5, 1);
    transform: translateY(156px) translate(120px, 42.561px) scaleX(0.8) scaleY(0.8) translate(-120px, -42.561px);
  }
  4.29% {
    animation-timing-function: cubic-bezier(0.5, 0, 0.5, 1);
    transform: translateY(156px) translate(120px, 42.561px) scaleX(1) scaleY(1) translate(-120px, -42.561px);
  }
  4.92% {
    animation-timing-function: cubic-bezier(0.5, 0, 0.5, 1);
    transform: translateY(156px) translate(120px, 42.561px) scaleX(0.8) scaleY(0.8) translate(-120px, -42.561px);
  }
  5.67% {
    animation-timing-function: cubic-bezier(0.5, 0, 0.5, 1);
    transform: translateY(156px) translate(120px, 42.561px) scaleX(1) scaleY(1) translate(-120px, -42.561px);
  }
  6.31% {
    animation-timing-function: cubic-bezier(0.5, 0, 0.5, 1);
    transform: translateY(156px) translate(120px, 42.561px) scaleX(0.8) scaleY(0.8) translate(-120px, -42.561px);
  }
  7.06% {
    animation-timing-function: cubic-bezier(0.5, 0, 0.5, 1);
    transform: translateY(156px) translate(120px, 42.561px) scaleX(1) scaleY(1) translate(-120px, -42.561px);
  }
  7.69% {
    animation-timing-function: cubic-bezier(0.5, 0, 0.5, 1);
    transform: translateY(156px) translate(120px, 42.561px) scaleX(0.8) scaleY(0.8) translate(-120px, -42.561px);
  }
  8.45% {
    animation-timing-function: cubic-bezier(0.5, 0, 0.5, 1);
    transform: translateY(156px) translate(120px, 42.561px) scaleX(1) scaleY(1) translate(-120px, -42.561px);
  }
  8.95% {
    animation-timing-function: cubic-bezier(0.5, 0, 0.5, 1);
    transform: translateY(156px) translate(120px, 42.561px) scaleX(0.8) scaleY(0.8) translate(-120px, -42.561px);
  }
  9.71% {
    animation-timing-function: cubic-bezier(0.5, 0, 0.5, 1);
    transform: translateY(156px) translate(120px, 42.561px) scaleX(1) scaleY(1) translate(-120px, -42.561px);
  }
  10.34% {
    animation-timing-function: cubic-bezier(0.5, 0, 0.5, 1);
    transform: translateY(156px) translate(120px, 42.561px) scaleX(0.8) scaleY(0.8) translate(-120px, -42.561px);
  }
  11.1% {
    animation-timing-function: cubic-bezier(0.5, 0, 0.5, 1);
    transform: translateY(156px) translate(120px, 42.561px) scaleX(1) scaleY(1) translate(-120px, -42.561px);
  }
  11.73% {
    animation-timing-function: cubic-bezier(0.5, 0, 0.5, 1);
    transform: translateY(156px) translate(120px, 42.561px) scaleX(0.8) scaleY(0.8) translate(-120px, -42.561px);
  }
  12.48% {
    animation-timing-function: cubic-bezier(0.5, 0, 0.5, 1);
    transform: translateY(156px) translate(120px, 42.561px) scaleX(1) scaleY(1) translate(-120px, -42.561px);
  }
  13.11% {
    animation-timing-function: cubic-bezier(0.5, 0, 0.5, 1);
    transform: translateY(156px) translate(120px, 42.561px) scaleX(0.8) scaleY(0.8) translate(-120px, -42.561px);
  }
  13.87% {
    animation-timing-function: cubic-bezier(0.5, 0, 0.5, 1);
    transform: translateY(156px) translate(120px, 42.561px) scaleX(1) scaleY(1) translate(-120px, -42.561px);
  }
  14.5% {
    animation-timing-function: cubic-bezier(0.5, 0, 0.5, 1);
    transform: translateY(156px) translate(120px, 42.561px) scaleX(0.8) scaleY(0.8) translate(-120px, -42.561px);
  }
  15.26% {
    animation-timing-function: cubic-bezier(0.5, 0, 0.5, 1);
    transform: translateY(156px) translate(120px, 42.561px) scaleX(1) scaleY(1) translate(-120px, -42.561px);
  }
  15.89% {
    animation-timing-function: cubic-bezier(0.5, 0, 0.5, 1);
    transform: translateY(156px) translate(120px, 42.561px) scaleX(0.8) scaleY(0.8) translate(-120px, -42.561px);
  }
  16.65% {
    animation-timing-function: cubic-bezier(0.5, 0, 0.5, 1);
    transform: translateY(156px) translate(120px, 42.561px) scaleX(1) scaleY(1) translate(-120px, -42.561px);
  }
  17.28% {
    animation-timing-function: cubic-bezier(0.5, 0, 0.5, 1);
    transform: translateY(156px) translate(120px, 42.561px) scaleX(0.8) scaleY(0.8) translate(-120px, -42.561px);
  }
  18.03% {
    animation-timing-function: cubic-bezier(0.5, 0, 0.5, 1);
    transform: translateY(156px) translate(120px, 42.561px) scaleX(1) scaleY(1) translate(-120px, -42.561px);
  }
  18.66% {
    animation-timing-function: cubic-bezier(0.5, 0, 0.5, 1);
    transform: translateY(156px) translate(120px, 42.561px) scaleX(0.8) scaleY(0.8) translate(-120px, -42.561px);
  }
  19.42% {
    animation-timing-function: cubic-bezier(0.5, 0, 0.5, 1);
    transform: translateY(156px) translate(120px, 42.561px) scaleX(1) scaleY(1) translate(-120px, -42.561px);
  }
  20.05% {
    animation-timing-function: cubic-bezier(0.5, 0, 0.5, 1);
    transform: translateY(156px) translate(120px, 42.561px) scaleX(0.8) scaleY(0.8) translate(-120px, -42.561px);
  }
  20.81% {
    animation-timing-function: cubic-bezier(0.5, 0, 0.5, 1);
    transform: translateY(156px) translate(120px, 42.561px) scaleX(1) scaleY(1) translate(-120px, -42.561px);
  }
  21.31% {
    animation-timing-function: cubic-bezier(0.5, 0, 0.5, 1);
    transform: translateY(156px) translate(120px, 42.561px) scaleX(0.8) scaleY(0.8) translate(-120px, -42.561px);
  }
  22.07% {
    animation-timing-function: cubic-bezier(0.5, 0, 0.5, 1);
    transform: translateY(156px) translate(120px, 42.561px) scaleX(1) scaleY(1) translate(-120px, -42.561px);
  }
  22.7% {
    animation-timing-function: cubic-bezier(0.5, 0, 0.5, 1);
    transform: translateY(156px) translate(120px, 42.561px) scaleX(0.8) scaleY(0.8) translate(-120px, -42.561px);
  }
  23.46% {
    animation-timing-function: cubic-bezier(0.5, 0, 0.5, 1);
    transform: translateY(156px) translate(120px, 42.561px) scaleX(1) scaleY(1) translate(-120px, -42.561px);
  }
  24.09% {
    animation-timing-function: cubic-bezier(0.5, 0, 0.5, 1);
    transform: translateY(156px) translate(120px, 42.561px) scaleX(0.8) scaleY(0.8) translate(-120px, -42.561px);
  }
  24.84% {
    animation-timing-function: cubic-bezier(0.5, 0, 0.5, 1);
    transform: translateY(156px) translate(120px, 42.561px) scaleX(1) scaleY(1) translate(-120px, -42.561px);
  }
  25.6% {
    animation-timing-function: cubic-bezier(0.5, 0, 0.5, 1);
    transform: translateY(156px) translate(120px, 42.561px) scaleX(0.8) scaleY(0.8) translate(-120px, -42.561px);
  }
  26.36% {
    animation-timing-function: cubic-bezier(0.5, 0, 0.5, 1);
    transform: translateY(156px) translate(120px, 42.561px) scaleX(1) scaleY(1) translate(-120px, -42.561px);
  }
  26.99% {
    animation-timing-function: cubic-bezier(0.5, 0, 0.5, 1);
    transform: translateY(156px) translate(120px, 42.561px) scaleX(0.8) scaleY(0.8) translate(-120px, -42.561px);
  }
  27.74% {
    animation-timing-function: cubic-bezier(0.5, 0, 0.5, 1);
    transform: translateY(156px) translate(120px, 42.561px) scaleX(1) scaleY(1) translate(-120px, -42.561px);
  }
  28.37% {
    animation-timing-function: cubic-bezier(0.5, 0, 0.5, 1);
    transform: translateY(156px) translate(120px, 42.561px) scaleX(0.8) scaleY(0.8) translate(-120px, -42.561px);
  }
  29.13% {
    animation-timing-function: cubic-bezier(0.5, 0, 0.5, 1);
    transform: translateY(156px) translate(120px, 42.561px) scaleX(1) scaleY(1) translate(-120px, -42.561px);
  }
  29.76% {
    animation-timing-function: cubic-bezier(0.5, 0, 0.5, 1);
    transform: translateY(156px) translate(120px, 42.561px) scaleX(0.8) scaleY(0.8) translate(-120px, -42.561px);
  }
  30.52% {
    animation-timing-function: cubic-bezier(0.5, 0, 0.5, 1);
    transform: translateY(156px) translate(120px, 42.561px) scaleX(1) scaleY(1) translate(-120px, -42.561px);
  }
  31.15% {
    animation-timing-function: cubic-bezier(0.5, 0, 0.5, 1);
    transform: translateY(156px) translate(120px, 42.561px) scaleX(0.8) scaleY(0.8) translate(-120px, -42.561px);
  }
  31.9% {
    animation-timing-function: cubic-bezier(0.5, 0, 0.5, 1);
    transform: translateY(156px) translate(120px, 42.561px) scaleX(1) scaleY(1) translate(-120px, -42.561px);
  }
  32.53% {
    animation-timing-function: cubic-bezier(0.5, 0, 0.5, 1);
    transform: translateY(156px) translate(120px, 42.561px) scaleX(0.8) scaleY(0.8) translate(-120px, -42.561px);
  }
  33.29% {
    animation-timing-function: cubic-bezier(0.5, 0, 0.5, 1);
    transform: translateY(156px) translate(120px, 42.561px) scaleX(1) scaleY(1) translate(-120px, -42.561px);
  }
  33.8% {
    animation-timing-function: cubic-bezier(0.5, 0, 0.5, 1);
    transform: translateY(156px) translate(120px, 42.561px) scaleX(0.8) scaleY(0.8) translate(-120px, -42.561px);
  }
  34.55% {
    animation-timing-function: cubic-bezier(0.5, 0, 0.5, 1);
    transform: translateY(156px) translate(120px, 42.561px) scaleX(1) scaleY(1) translate(-120px, -42.561px);
  }
  35.18% {
    animation-timing-function: cubic-bezier(0.5, 0, 0.5, 1);
    transform: translateY(156px) translate(120px, 42.561px) scaleX(0.8) scaleY(0.8) translate(-120px, -42.561px);
  }
  35.94% {
    animation-timing-function: cubic-bezier(0.5, 0, 0.5, 1);
    transform: translateY(156px) translate(120px, 42.561px) scaleX(1) scaleY(1) translate(-120px, -42.561px);
  }
  36.57% {
    animation-timing-function: cubic-bezier(0.5, 0, 0.5, 1);
    transform: translateY(156px) translate(120px, 42.561px) scaleX(0.8) scaleY(0.8) translate(-120px, -42.561px);
  }
  37.33% {
    animation-timing-function: cubic-bezier(0.5, 0, 0.5, 1);
    transform: translateY(156px) translate(120px, 42.561px) scaleX(1) scaleY(1) translate(-120px, -42.561px);
  }
  37.96% {
    animation-timing-function: cubic-bezier(0.5, 0, 0.5, 1);
    transform: translateY(156px) translate(120px, 42.561px) scaleX(0.8) scaleY(0.8) translate(-120px, -42.561px);
  }
  38.71% {
    animation-timing-function: cubic-bezier(0.5, 0, 0.5, 1);
    transform: translateY(156px) translate(120px, 42.561px) scaleX(1) scaleY(1) translate(-120px, -42.561px);
  }
  39.34% {
    animation-timing-function: cubic-bezier(0.5, 0, 0.5, 1);
    transform: translateY(156px) translate(120px, 42.561px) scaleX(0.8) scaleY(0.8) translate(-120px, -42.561px);
  }
  40.1% {
    animation-timing-function: cubic-bezier(0.5, 0, 0.5, 1);
    transform: translateY(156px) translate(120px, 42.561px) scaleX(1) scaleY(1) translate(-120px, -42.561px);
  }
  40.73% {
    animation-timing-function: cubic-bezier(0.5, 0, 0.5, 1);
    transform: translateY(156px) translate(120px, 42.561px) scaleX(0.8) scaleY(0.8) translate(-120px, -42.561px);
  }
  41.49% {
    animation-timing-function: cubic-bezier(0.5, 0, 0.5, 1);
    transform: translateY(156px) translate(120px, 42.561px) scaleX(1) scaleY(1) translate(-120px, -42.561px);
  }
  42.12% {
    animation-timing-function: cubic-bezier(0.5, 0, 0.5, 1);
    transform: translateY(156px) translate(120px, 42.561px) scaleX(0.8) scaleY(0.8) translate(-120px, -42.561px);
  }
  42.88% {
    animation-timing-function: cubic-bezier(0.5, 0, 0.5, 1);
    transform: translateY(156px) translate(120px, 42.561px) scaleX(1) scaleY(1) translate(-120px, -42.561px);
  }
  43.51% {
    animation-timing-function: cubic-bezier(0.5, 0, 0.5, 1);
    transform: translateY(156px) translate(120px, 42.561px) scaleX(0.8) scaleY(0.8) translate(-120px, -42.561px);
  }
  44.26% {
    animation-timing-function: cubic-bezier(0.5, 0, 0.5, 1);
    transform: translateY(156px) translate(120px, 42.561px) scaleX(1) scaleY(1) translate(-120px, -42.561px);
  }
  44.89% {
    animation-timing-function: cubic-bezier(0.5, 0, 0.5, 1);
    transform: translateY(156px) translate(120px, 42.561px) scaleX(0.8) scaleY(0.8) translate(-120px, -42.561px);
  }
  45.65% {
    animation-timing-function: cubic-bezier(0.5, 0, 0.5, 1);
    transform: translateY(156px) translate(120px, 42.561px) scaleX(1) scaleY(1) translate(-120px, -42.561px);
  }
  46.15% {
    animation-timing-function: cubic-bezier(0.5, 0, 0.5, 1);
    transform: translateY(156px) translate(120px, 42.561px) scaleX(0.8) scaleY(0.8) translate(-120px, -42.561px);
  }
  46.91% {
    animation-timing-function: cubic-bezier(0.5, 0, 0.5, 1);
    transform: translateY(156px) translate(120px, 42.561px) scaleX(1) scaleY(1) translate(-120px, -42.561px);
  }
  47.54% {
    animation-timing-function: cubic-bezier(0.5, 0, 0.5, 1);
    transform: translateY(156px) translate(120px, 42.561px) scaleX(0.8) scaleY(0.8) translate(-120px, -42.561px);
  }
  48.3% {
    animation-timing-function: cubic-bezier(0.5, 0, 0.5, 1);
    transform: translateY(156px) translate(120px, 42.561px) scaleX(1) scaleY(1) translate(-120px, -42.561px);
  }
  48.93% {
    animation-timing-function: cubic-bezier(0.5, 0, 0.5, 1);
    transform: translateY(156px) translate(120px, 42.561px) scaleX(0.8) scaleY(0.8) translate(-120px, -42.561px);
  }
  49.68% {
    animation-timing-function: cubic-bezier(0.5, 0, 0.5, 1);
    transform: translateY(156px) translate(120px, 42.561px) scaleX(1) scaleY(1) translate(-120px, -42.561px);
  }
  50.44% {
    animation-timing-function: cubic-bezier(0.5, 0, 0.5, 1);
    transform: translateY(156px) translate(120px, 42.561px) scaleX(0.8) scaleY(0.8) translate(-120px, -42.561px);
  }
  51.2% {
    animation-timing-function: cubic-bezier(0.5, 0, 0.5, 1);
    transform: translateY(156px) translate(120px, 42.561px) scaleX(1) scaleY(1) translate(-120px, -42.561px);
  }
  51.83% {
    animation-timing-function: cubic-bezier(0.5, 0, 0.5, 1);
    transform: translateY(156px) translate(120px, 42.561px) scaleX(0.8) scaleY(0.8) translate(-120px, -42.561px);
  }
  52.59% {
    animation-timing-function: cubic-bezier(0.5, 0, 0.5, 1);
    transform: translateY(156px) translate(120px, 42.561px) scaleX(1) scaleY(1) translate(-120px, -42.561px);
  }
  53.22% {
    animation-timing-function: cubic-bezier(0.5, 0, 0.5, 1);
    transform: translateY(156px) translate(120px, 42.561px) scaleX(0.8) scaleY(0.8) translate(-120px, -42.561px);
  }
  53.97% {
    animation-timing-function: cubic-bezier(0.5, 0, 0.5, 1);
    transform: translateY(156px) translate(120px, 42.561px) scaleX(1) scaleY(1) translate(-120px, -42.561px);
  }
  54.6% {
    animation-timing-function: cubic-bezier(0.5, 0, 0.5, 1);
    transform: translateY(156px) translate(120px, 42.561px) scaleX(0.8) scaleY(0.8) translate(-120px, -42.561px);
  }
  55.36% {
    animation-timing-function: cubic-bezier(0.5, 0, 0.5, 1);
    transform: translateY(156px) translate(120px, 42.561px) scaleX(1) scaleY(1) translate(-120px, -42.561px);
  }
  55.99% {
    animation-timing-function: cubic-bezier(0.5, 0, 0.5, 1);
    transform: translateY(156px) translate(120px, 42.561px) scaleX(0.8) scaleY(0.8) translate(-120px, -42.561px);
  }
  56.75% {
    animation-timing-function: cubic-bezier(0.5, 0, 0.5, 1);
    transform: translateY(156px) translate(120px, 42.561px) scaleX(1) scaleY(1) translate(-120px, -42.561px);
  }
  57.38% {
    animation-timing-function: cubic-bezier(0.5, 0, 0.5, 1);
    transform: translateY(156px) translate(120px, 42.561px) scaleX(0.8) scaleY(0.8) translate(-120px, -42.561px);
  }
  58.13% {
    animation-timing-function: cubic-bezier(0.5, 0, 0.5, 1);
    transform: translateY(156px) translate(120px, 42.561px) scaleX(1) scaleY(1) translate(-120px, -42.561px);
  }
  58.64% {
    animation-timing-function: cubic-bezier(0.5, 0, 0.5, 1);
    transform: translateY(156px) translate(120px, 42.561px) scaleX(0.8) scaleY(0.8) translate(-120px, -42.561px);
  }
  59.39% {
    animation-timing-function: cubic-bezier(0.5, 0, 0.5, 1);
    transform: translateY(156px) translate(120px, 42.561px) scaleX(1) scaleY(1) translate(-120px, -42.561px);
  }
  60.03% {
    animation-timing-function: cubic-bezier(0.5, 0, 0.5, 1);
    transform: translateY(156px) translate(120px, 42.561px) scaleX(0.8) scaleY(0.8) translate(-120px, -42.561px);
  }
  60.78% {
    animation-timing-function: cubic-bezier(0.5, 0, 0.5, 1);
    transform: translateY(156px) translate(120px, 42.561px) scaleX(1) scaleY(1) translate(-120px, -42.561px);
  }
  61.41% {
    animation-timing-function: cubic-bezier(0.5, 0, 0.5, 1);
    transform: translateY(156px) translate(120px, 42.561px) scaleX(0.8) scaleY(0.8) translate(-120px, -42.561px);
  }
  62.17% {
    animation-timing-function: cubic-bezier(0.5, 0, 0.5, 1);
    transform: translateY(156px) translate(120px, 42.561px) scaleX(1) scaleY(1) translate(-120px, -42.561px);
  }
  62.8% {
    animation-timing-function: cubic-bezier(0.5, 0, 0.5, 1);
    transform: translateY(156px) translate(120px, 42.561px) scaleX(0.8) scaleY(0.8) translate(-120px, -42.561px);
  }
  63.56% {
    animation-timing-function: cubic-bezier(0.5, 0, 0.5, 1);
    transform: translateY(156px) translate(120px, 42.561px) scaleX(1) scaleY(1) translate(-120px, -42.561px);
  }
  64.19% {
    animation-timing-function: cubic-bezier(0.5, 0, 0.5, 1);
    transform: translateY(156px) translate(120px, 42.561px) scaleX(0.8) scaleY(0.8) translate(-120px, -42.561px);
  }
  64.94% {
    animation-timing-function: cubic-bezier(0.5, 0, 0.5, 1);
    transform: translateY(156px) translate(120px, 42.561px) scaleX(1) scaleY(1) translate(-120px, -42.561px);
  }
  65.57% {
    animation-timing-function: cubic-bezier(0.5, 0, 0.5, 1);
    transform: translateY(156px) translate(120px, 42.561px) scaleX(0.8) scaleY(0.8) translate(-120px, -42.561px);
  }
  66.33% {
    animation-timing-function: cubic-bezier(0.5, 0, 0.5, 1);
    transform: translateY(156px) translate(120px, 42.561px) scaleX(1) scaleY(1) translate(-120px, -42.561px);
  }
  66.96% {
    animation-timing-function: cubic-bezier(0.5, 0, 0.5, 1);
    transform: translateY(156px) translate(120px, 42.561px) scaleX(0.8) scaleY(0.8) translate(-120px, -42.561px);
  }
  67.72% {
    animation-timing-function: cubic-bezier(0.5, 0, 0.5, 1);
    transform: translateY(156px) translate(120px, 42.561px) scaleX(1) scaleY(1) translate(-120px, -42.561px);
  }
  68.35% {
    animation-timing-function: cubic-bezier(0.5, 0, 0.5, 1);
    transform: translateY(156px) translate(120px, 42.561px) scaleX(0.8) scaleY(0.8) translate(-120px, -42.561px);
  }
  69.1% {
    animation-timing-function: cubic-bezier(0.5, 0, 0.5, 1);
    transform: translateY(156px) translate(120px, 42.561px) scaleX(1) scaleY(1) translate(-120px, -42.561px);
  }
  69.74% {
    animation-timing-function: cubic-bezier(0.5, 0, 0.5, 1);
    transform: translateY(156px) translate(120px, 42.561px) scaleX(0.8) scaleY(0.8) translate(-120px, -42.561px);
  }
  70.49% {
    animation-timing-function: cubic-bezier(0.5, 0, 0.5, 1);
    transform: translateY(156px) translate(120px, 42.561px) scaleX(1) scaleY(1) translate(-120px, -42.561px);
  }
  71% {
    animation-timing-function: cubic-bezier(0.5, 0, 0.5, 1);
    transform: translateY(156px) translate(120px, 42.561px) scaleX(0.8) scaleY(0.8) translate(-120px, -42.561px);
  }
  71.75% {
    animation-timing-function: cubic-bezier(0.5, 0, 0.5, 1);
    transform: translateY(156px) translate(120px, 42.561px) scaleX(1) scaleY(1) translate(-120px, -42.561px);
  }
  72.38% {
    animation-timing-function: cubic-bezier(0.5, 0, 0.5, 1);
    transform: translateY(156px) translate(120px, 42.561px) scaleX(0.8) scaleY(0.8) translate(-120px, -42.561px);
  }
  73.14% {
    animation-timing-function: cubic-bezier(0.5, 0, 0.5, 1);
    transform: translateY(156px) translate(120px, 42.561px) scaleX(1) scaleY(1) translate(-120px, -42.561px);
  }
  73.77% {
    animation-timing-function: cubic-bezier(0.5, 0, 0.5, 1);
    transform: translateY(156px) translate(120px, 42.561px) scaleX(0.8) scaleY(0.8) translate(-120px, -42.561px);
  }
  74.53% {
    animation-timing-function: cubic-bezier(0.5, 0, 0.5, 1);
    transform: translateY(156px) translate(120px, 42.561px) scaleX(1) scaleY(1) translate(-120px, -42.561px);
  }
  75.28% {
    animation-timing-function: cubic-bezier(0.5, 0, 0.5, 1);
    transform: translateY(156px) translate(120px, 42.561px) scaleX(0.8) scaleY(0.8) translate(-120px, -42.561px);
  }
  76.04% {
    animation-timing-function: cubic-bezier(0.5, 0, 0.5, 1);
    transform: translateY(156px) translate(120px, 42.561px) scaleX(1) scaleY(1) translate(-120px, -42.561px);
  }
  76.67% {
    animation-timing-function: cubic-bezier(0.5, 0, 0.5, 1);
    transform: translateY(156px) translate(120px, 42.561px) scaleX(0.8) scaleY(0.8) translate(-120px, -42.561px);
  }
  77.43% {
    animation-timing-function: cubic-bezier(0.5, 0, 0.5, 1);
    transform: translateY(156px) translate(120px, 42.561px) scaleX(1) scaleY(1) translate(-120px, -42.561px);
  }
  78.06% {
    animation-timing-function: cubic-bezier(0.5, 0, 0.5, 1);
    transform: translateY(156px) translate(120px, 42.561px) scaleX(0.8) scaleY(0.8) translate(-120px, -42.561px);
  }
  78.81% {
    animation-timing-function: cubic-bezier(0.5, 0, 0.5, 1);
    transform: translateY(156px) translate(120px, 42.561px) scaleX(1) scaleY(1) translate(-120px, -42.561px);
  }
  79.45% {
    animation-timing-function: cubic-bezier(0.5, 0, 0.5, 1);
    transform: translateY(156px) translate(120px, 42.561px) scaleX(0.8) scaleY(0.8) translate(-120px, -42.561px);
  }
  80.2% {
    animation-timing-function: cubic-bezier(0.5, 0, 0.5, 1);
    transform: translateY(156px) translate(120px, 42.561px) scaleX(1) scaleY(1) translate(-120px, -42.561px);
  }
  80.83% {
    animation-timing-function: cubic-bezier(0.5, 0, 0.5, 1);
    transform: translateY(156px) translate(120px, 42.561px) scaleX(0.8) scaleY(0.8) translate(-120px, -42.561px);
  }
  81.59% {
    animation-timing-function: cubic-bezier(0.5, 0, 0.5, 1);
    transform: translateY(156px) translate(120px, 42.561px) scaleX(1) scaleY(1) translate(-120px, -42.561px);
  }
  82.22% {
    animation-timing-function: cubic-bezier(0.5, 0, 0.5, 1);
    transform: translateY(156px) translate(120px, 42.561px) scaleX(0.8) scaleY(0.8) translate(-120px, -42.561px);
  }
  82.98% {
    animation-timing-function: cubic-bezier(0.5, 0, 0.5, 1);
    transform: translateY(156px) translate(120px, 42.561px) scaleX(1) scaleY(1) translate(-120px, -42.561px);
  }
  83.48% {
    animation-timing-function: cubic-bezier(0.5, 0, 0.5, 1);
    transform: translateY(156px) translate(120px, 42.561px) scaleX(0.8) scaleY(0.8) translate(-120px, -42.561px);
  }
  84.24% {
    animation-timing-function: cubic-bezier(0.5, 0, 0.5, 1);
    transform: translateY(156px) translate(120px, 42.561px) scaleX(1) scaleY(1) translate(-120px, -42.561px);
  }
  84.87% {
    animation-timing-function: cubic-bezier(0.5, 0, 0.5, 1);
    transform: translateY(156px) translate(120px, 42.561px) scaleX(0.8) scaleY(0.8) translate(-120px, -42.561px);
  }
  85.62% {
    animation-timing-function: cubic-bezier(0.5, 0, 0.5, 1);
    transform: translateY(156px) translate(120px, 42.561px) scaleX(1) scaleY(1) translate(-120px, -42.561px);
  }
  86.25% {
    animation-timing-function: cubic-bezier(0.5, 0, 0.5, 1);
    transform: translateY(156px) translate(120px, 42.561px) scaleX(0.8) scaleY(0.8) translate(-120px, -42.561px);
  }
  87.01% {
    animation-timing-function: cubic-bezier(0.5, 0, 0.5, 1);
    transform: translateY(156px) translate(120px, 42.561px) scaleX(1) scaleY(1) translate(-120px, -42.561px);
  }
  87.64% {
    animation-timing-function: cubic-bezier(0.5, 0, 0.5, 1);
    transform: translateY(156px) translate(120px, 42.561px) scaleX(0.8) scaleY(0.8) translate(-120px, -42.561px);
  }
  88.4% {
    animation-timing-function: cubic-bezier(0.5, 0, 0.5, 1);
    transform: translateY(156px) translate(120px, 42.561px) scaleX(1) scaleY(1) translate(-120px, -42.561px);
  }
  89.03% {
    animation-timing-function: cubic-bezier(0.5, 0, 0.5, 1);
    transform: translateY(156px) translate(120px, 42.561px) scaleX(0.8) scaleY(0.8) translate(-120px, -42.561px);
  }
  89.79% {
    animation-timing-function: cubic-bezier(0.5, 0, 0.5, 1);
    transform: translateY(156px) translate(120px, 42.561px) scaleX(1) scaleY(1) translate(-120px, -42.561px);
  }
  90.42% {
    animation-timing-function: cubic-bezier(0.5, 0, 0.5, 1);
    transform: translateY(156px) translate(120px, 42.561px) scaleX(0.8) scaleY(0.8) translate(-120px, -42.561px);
  }
  91.17% {
    animation-timing-function: cubic-bezier(0.5, 0, 0.5, 1);
    transform: translateY(156px) translate(120px, 42.561px) scaleX(1) scaleY(1) translate(-120px, -42.561px);
  }
  91.8% {
    animation-timing-function: cubic-bezier(0.5, 0, 0.5, 1);
    transform: translateY(156px) translate(120px, 42.561px) scaleX(0.8) scaleY(0.8) translate(-120px, -42.561px);
  }
  92.56% {
    animation-timing-function: cubic-bezier(0.5, 0, 0.5, 1);
    transform: translateY(156px) translate(120px, 42.561px) scaleX(1) scaleY(1) translate(-120px, -42.561px);
  }
  93.19% {
    animation-timing-function: cubic-bezier(0.5, 0, 0.5, 1);
    transform: translateY(156px) translate(120px, 42.561px) scaleX(0.8) scaleY(0.8) translate(-120px, -42.561px);
  }
  93.95% {
    animation-timing-function: cubic-bezier(0.5, 0, 0.5, 1);
    transform: translateY(156px) translate(120px, 42.561px) scaleX(1) scaleY(1) translate(-120px, -42.561px);
  }
  94.58% {
    animation-timing-function: cubic-bezier(0.5, 0, 0.5, 1);
    transform: translateY(156px) translate(120px, 42.561px) scaleX(0.8) scaleY(0.8) translate(-120px, -42.561px);
  }
  95.33% {
    animation-timing-function: cubic-bezier(0.5, 0, 0.5, 1);
    transform: translateY(156px) translate(120px, 42.561px) scaleX(1) scaleY(1) translate(-120px, -42.561px);
  }
  95.84% {
    animation-timing-function: cubic-bezier(0.5, 0, 0.5, 1);
    transform: translateY(156px) translate(120px, 42.561px) scaleX(0.8) scaleY(0.8) translate(-120px, -42.561px);
  }
  96.6% {
    animation-timing-function: cubic-bezier(0.5, 0, 0.5, 1);
    transform: translateY(156px) translate(120px, 42.561px) scaleX(1) scaleY(1) translate(-120px, -42.561px);
  }
  97.23% {
    animation-timing-function: cubic-bezier(0.5, 0, 0.5, 1);
    transform: translateY(156px) translate(120px, 42.561px) scaleX(0.8) scaleY(0.8) translate(-120px, -42.561px);
  }
  97.98% {
    animation-timing-function: cubic-bezier(0.5, 0, 0.5, 1);
    transform: translateY(156px) translate(120px, 42.561px) scaleX(1) scaleY(1) translate(-120px, -42.561px);
  }
  98.61% {
    animation-timing-function: cubic-bezier(0.5, 0, 0.5, 1);
    transform: translateY(156px) translate(120px, 42.561px) scaleX(0.8) scaleY(0.8) translate(-120px, -42.561px);
  }
  99.37% {
    animation-timing-function: cubic-bezier(0.5, 0, 0.5, 1);
    transform: translateY(156px) translate(120px, 42.561px) scaleX(1) scaleY(1) translate(-120px, -42.561px);
  }
  100% {
    transform: translateY(156px) translate(120px, 42.561px) scaleX(0.8) scaleY(0.8) translate(-120px, -42.561px);
  }
}
#Wings {
  transform-origin: 0 0;
  animation: kf_Wings_transform_0 0.8s linear infinite;
}
@keyframes kf_Smile_transform_0 {
  0% {
    animation-timing-function: cubic-bezier(0.5, 0, 0.5, 1);
    transform: translateX(160.785px) translateY(172.839px) translate(13.907px, 3.949px) scaleX(1) scaleY(1) translate(-13.907px, -3.949px) scaleX(1);
  }
  12.5% {
    animation-timing-function: cubic-bezier(0.5, 0, 0.5, 1);
    transform: translateX(160.785px) translateY(172.839px) translate(13.907px, 3.949px) scaleX(0.8) scaleY(0.8) translate(-13.907px, -3.949px) scaleX(1);
  }
  100% {
    transform: translateX(160.785px) translateY(172.839px) translate(13.907px, 3.949px) scaleX(1) scaleY(1) translate(-13.907px, -3.949px) scaleX(1);
  }
}
#Smile {
  transform-origin: 0 0;
  vector-effect: non-scaling-stroke;
  animation: kf_Smile_transform_0 0.8s linear infinite;
}
</style>
<g id="On_Tablet" clip-path="url(#clip0_2339_4268)">
<path id="Shadow" transform="translate(130.17 432.933)" d="M30 8C46.5685 8 60 6.20914 60 4C60 1.79086 46.5685 0 30 0C13.4315 0 0 1.79086 0 4C0 6.20914 13.4315 8 30 8Z" fill="#8A5611"/>
<g id="Bee_Body" transform="translate(20)">
<path id="Vector" transform="translate(142.905 311.905)" d="M22.847 49.6954C31.588 39.3644 36.422 16.2364 35.76 5.97242C24.635 -7.53657 5.96 4.9954 0 12.9424C0 27.2464 3.97401 41.4174 5.96001 46.7154C11.523 58.6354 19.536 53.6684 22.847 49.6954Z" fill="#2C2626" stroke="black" stroke-width="5"/>
<path id="Vector_2" transform="translate(45.3798 297.529)" d="M25.3749 0L41.5222 18.454L0 25.374L25.3749 0Z" fill="#2C2626" stroke="black" stroke-width="5"/>
<g id="Wings" transform="translate(0 156)">
<path id="Right_Wing" transform="translate(142.062 1.52588e-05)" d="M53.884 5.57167C59.8864 2.90067 69.1444 -0.475332 77.6968 0.0556681C81.9356 0.318668 85.8845 1.53566 89.1743 4.15366C92.4387 6.75166 95.2259 10.8657 96.9701 17.2797C99.7372 27.4577 96.4297 39.9197 88.851 51.7197C81.3205 63.4467 69.8482 74.0467 57.187 80.3047C50.1856 83.7647 36.4822 85.9617 24.0231 84.8147C17.8178 84.2427 12.1159 82.8557 7.8129 80.5277C3.50991 78.1997 0.907202 75.1147 0.191941 71.2627C-0.541773 67.3127 0.834274 61.8307 4.21287 55.2967C7.53172 48.8767 12.5385 41.9117 18.3353 35.2087C29.9728 21.7497 44.3905 9.79567 53.884 5.57167Z" fill="#CDF0F6" fill-opacity="0.65" stroke="#28899A" stroke-width="5"/>
<path id="Left_Wing" d="M44.0536 5.57167C38.051 2.90067 28.7936 -0.475332 20.2413 0.0556681C16.002 0.318668 12.0532 1.53566 8.76351 4.15366C5.49923 6.75166 2.71208 10.8657 0.96795 17.2797C-1.79934 27.4577 1.508 39.9197 9.08634 51.7197C16.6175 63.4467 28.0898 74.0467 40.7506 80.3047C47.7518 83.7647 61.4557 85.9617 73.9144 84.8147C80.1203 84.2427 85.8222 82.8557 90.1252 80.5277C94.4282 78.1997 97.03 75.1147 97.7461 71.2627C98.4799 67.3127 97.1038 61.8307 93.7252 55.2967C90.4055 48.8767 85.3987 41.9117 79.6028 35.2087C67.9652 21.7497 53.547 9.79567 44.0536 5.57167Z" fill="#CDF0F6" fill-opacity="0.65" stroke="#28899A" stroke-width="5"/>
</g>
<path id="Vector_3" transform="translate(67.5985 61.5862)" d="M7.54646 51.1918C-13.1147 106.024 13.5065 137.611 29.3995 146.551C72.3115 171.98 119.461 161.12 137.672 152.511C175.021 137.413 179.185 110.427 173.832 94.3658C171.845 88.4058 169.858 86.4198 169.858 74.4998C167.474 27.6145 132.705 10.1343 115.819 5.49878C51.4515 -15.1624 16.8175 27.3519 7.54646 51.1918Z" fill="#FDE68A" stroke="black" stroke-width="5"/>
<path id="Vector_4" transform="translate(121.052 131.119)" d="M14.8999 39.733C23.1289 39.733 29.7998 30.8385 29.7998 19.8665C29.7998 8.89454 23.1289 0 14.8999 0C6.67091 0 0 8.89454 0 19.8665C0 30.8385 6.67091 39.733 14.8999 39.733Z" fill="#281E1F"/>
<path id="Vector_5" transform="translate(192.571 131.119)" d="M13.9066 39.733C21.587 39.733 27.8132 30.8385 27.8132 19.8665C27.8132 8.89454 21.587 0 13.9066 0C6.2262 0 0 8.89454 0 19.8665C0 30.8385 6.2262 39.733 13.9066 39.733Z" fill="#281E1F"/>
<path id="Vector_6" transform="translate(134.959 137.079)" d="M4.96663 9.93326C7.70962 9.93326 9.93326 7.70962 9.93326 4.96663C9.93326 2.22364 7.70962 0 4.96663 0C2.22364 0 0 2.22364 0 4.96663C0 7.70962 2.22364 9.93326 4.96663 9.93326Z" fill="white"/>
<path id="Vector_7" transform="translate(204.491 137.079)" d="M4.96663 9.93326C7.70962 9.93326 9.93326 7.70962 9.93326 4.96663C9.93326 2.22364 7.70962 0 4.96663 0C2.22364 0 0 2.22364 0 4.96663C0 7.70962 2.22364 9.93326 4.96663 9.93326Z" fill="white"/>
<path id="Smile" transform="translate(160.785 172.839)" d="M0 0C4.967 5.96 15.894 14.304 27.814 0" stroke="black" stroke-width="5" stroke-linecap="round"/>
<path id="Vector_8" transform="translate(69.9295 75.4928)" d="M35.4155 121.186C-13.2577 82.4462 21.1775 20.8599 41.3755 0C15.9455 12.7146 3.65763 44.3682 0.677732 59.5992C-6.30437 124.166 42.3685 142.377 68.1955 145.025C122.232 152.177 153.953 127.477 162.562 115.226C105.346 153.369 57.2395 136.086 35.4155 121.186Z" fill="#F0B223"/>
<path id="Vector_9" transform="translate(103.172 168.865)" d="M27.814 7.94699C27.814 12.336 23.178 15.894 13.907 15.894C6.227 15.894 0 13.245 0 7.94699C0 2.64899 6.227 0 13.907 0C21.587 0 27.814 2.64899 27.814 7.94699Z" fill="#FA9C90"/>
<path id="Vector_10" transform="translate(212.438 166.879)" d="M25.827 7.94701C25.827 12.335 21.522 15.893 12.913 15.893C5.78199 15.893 0 13.244 0 7.94701C0 2.64901 5.78199 0 12.913 0C20.045 0 25.827 2.64901 25.827 7.94701Z" fill="#FA9C90"/>
<path id="Vector_11" transform="translate(125.211)" d="M10.927 76.3327C6.159 82.6899 2.318 78.9815 0.994003 76.3327L0 50.5062C0 25.673 9.934 15.8932 13.907 10.7731C24.834 -1.14681 30.462 -0.815697 33.774 0.839847C48.872 11.1704 36.754 23.6864 24.834 31.633C8.94 43.5529 9.271 63.0883 10.927 76.3327Z" fill="black"/>
<path id="Vector_12" transform="translate(177.307 16.2341)" d="M8.93199 61.1569C1.86299 64.7868 0.032 59.7716 0 56.8102L10.408 33.153C21.275 10.8237 33.371 6.39936 40.3 3.51146C55.341 -2.42524 60.257 0.335559 62.51 3.27306C71.565 19.1691 55.192 25.1202 40.996 27.0495C21.49 30.8129 13.239 48.5235 8.93199 61.1569Z" fill="black"/>
<path id="Vector_13" transform="translate(64.5228 210.331)" d="M92.0782 120.436C151.855 91.437 140.75 55.87 134.791 11.17C91.0142 20.802 42.8932 7.265 32.8372 0C-1.86306 27.315 -2.27886 64.18 1.68504 82.69C20.1072 134.611 70.2382 128.223 92.0782 120.436Z" fill="#2C2626" stroke="black" stroke-width="5"/>
<path id="Vector_14" transform="translate(74.366 226.478)" d="M124.166 11.92C80.817 40.453 31.024 12.589 11.92 0C8.79401 3.147 1.3894 15.909 0 21.854C54.186 59.618 106.055 50.979 125.159 38.74C127.146 30.794 126.25 16.116 124.166 11.92Z" fill="#FDE68A"/>
<path id="Vector_15" transform="translate(68.5253 268.514)" d="M124.835 24.3389C72.6167 47.4429 23.2897 29.9799 2.23368 0.207856C2.04558 -0.0581436 1.66308 -0.0781251 1.49548 0.201875C-0.780925 3.99287 -0.00302601 15.4599 0.861274 19.4929C0.869874 19.5329 0.883074 19.5699 0.901374 19.6059C19.7377 57.4659 88.1047 56.0049 108 44.1239C108.792 43.6509 109.475 43.0629 110.125 42.4079C116.505 35.9899 123.009 29.1459 125.439 24.9569C125.669 24.5609 125.254 24.1539 124.835 24.3389Z" fill="#FDE68A"/>
<path id="Vector_16" transform="translate(113.655 232.438)" d="M66.7931 12.233C49.2301 16.624 32.3751 7.20499 25.4791 1.45099C25.0451 1.08899 24.5311 0.838979 23.9721 0.754979C9.92911 -1.34602 -11.7569 -0.282013 7.80811 20.174C25.5851 38.761 60.2711 35.94 67.6571 35.099C68.5621 34.996 69.3251 34.472 69.7581 33.67C72.6171 28.377 82.5821 8.28499 66.7931 12.233Z" fill="#2C2626" stroke="black" stroke-width="5"/>
<path id="Vector_17" transform="translate(175.195 215.558)" d="M28.4045 0H88.5545C89.9925 0 90.9605 1.473 90.3905 2.793L62.9795 66.292C62.6585 67.036 61.9195 67.513 61.1095 67.499L1.96751 66.504C0.551506 66.48 -0.391493 65.032 0.159507 63.727L26.5615 1.222C26.8745 0.482 27.6005 0 28.4045 0Z" fill="#6C8B9D" stroke="black" stroke-width="2"/>
<path id="Vector_18" transform="translate(209.644 227.596)" d="M2.1729 4.3458C3.37296 4.3458 4.3458 3.37296 4.3458 2.1729C4.3458 0.97284 3.37296 0 2.1729 0C0.97284 0 0 0.97284 0 2.1729C0 3.37296 0.97284 4.3458 2.1729 4.3458Z" fill="black"/>
<path id="Vector_19" transform="translate(181.397 219.991)" d="M0 57.582L23.646 0.615997C23.801 0.242997 24.165 0 24.57 0H78.224" stroke="#8FA8AF" stroke-width="1.5" stroke-linecap="round"/>
<path id="Vector_20" transform="translate(237.235 242.892)" d="M16.0562 0.537507C21.3082 2.49251 24.3013 9.64752 21.5073 17.1555C18.7123 24.6635 11.7692 28.1205 6.51824 26.1655C1.26724 24.2115 -1.72674 17.0565 1.06826 9.54851C3.86226 2.04051 10.8052 -1.41649 16.0562 0.537507Z" fill="#2C2626" stroke="black" stroke-width="5"/>
<path id="Vector_21" transform="translate(93.2392 317.865)" d="M9.11479 49.6823C0.373792 39.3523 -0.487203 16.2403 0.174797 5.97631C11.2998 -7.53269 26.0018 4.98331 31.9618 12.9293C31.9618 27.2333 27.9878 41.4053 26.0018 46.7023C20.4388 58.6223 12.4258 53.6563 9.11479 49.6823Z" fill="#2C2626" stroke="black" stroke-width="5"/>
<path id="Vector_22" transform="translate(199.497 282.945)" d="M1.65401 0L18.877 1.465C18.913 1.963 18.915 2.49099 18.877 3.04999L17.835 18.599C15.348 23.488 4.342 27.675 0 15.568L0.916 1.90399C1.096 1.31299 1.34301 0.666 1.65401 0Z" fill="#8A5611" stroke="black" stroke-width="2.44"/>
<path id="Vector_23" transform="translate(63.505 266.975)" d="M1.7947 17.3902C0.677801 16.8002 0 15.6452 0 14.3782V3.86021C0 1.09221 3.15611 -0.785774 5.68301 0.324227C27.193 9.77223 88.084 25.9112 126.578 16.1452C126.859 16.0732 127.142 16.0362 127.431 16.0342L136.47 15.9622C138.553 15.9462 140.163 17.7372 139.925 19.8032L138.618 31.1422C138.457 32.5382 137.465 33.7202 136.109 34.1122C82.185 49.6742 32.988 33.8442 1.7947 17.3902Z" fill="#8A5611" stroke="black" stroke-width="2.32849"/>
<path id="Vector_24" transform="translate(69.5318 275.211)" d="M2.73644 30.988C-1.60446 26.458 0.142136 13.425 1.71604 7.77603C1.77664 7.55903 1.86413 7.35603 1.97583 7.15903L5.19753 1.48505C5.72013 0.565049 6.70043 -0.00496737 7.75453 3.26263e-05L29.7362 0.0890219C30.3032 0.0910219 30.8542 0.260038 31.3222 0.574038L32.6152 1.44504C33.4812 2.02804 33.9542 3.03905 33.8502 4.08405L31.4712 28.001C31.4192 28.527 31.2252 29.038 30.8872 29.448C23.0012 39.023 8.93743 34.742 3.18693 31.339C3.02003 31.24 2.87034 31.127 2.73644 30.988Z" fill="#8A5611" stroke="black" stroke-width="2.88236"/>
<path id="Vector_25" transform="translate(71.4429 265.865)" d="M23.9301 20.7897C25.9741 19.0347 30.7811 14.6227 32.0491 12.3197C32.9481 10.6877 30.3211 8.44171 29.3581 7.14571C29.1731 6.89771 28.9951 6.64171 28.7701 6.43071C22.6771 0.699711 13.7421 -0.226273 9.72807 0.0407272C9.55807 0.0527272 9.38708 0.0827094 9.22108 0.128709C-1.65482 3.16471 -0.738629 12.4697 1.19837 17.0817C1.29037 17.3007 1.41767 17.5057 1.56947 17.6887C9.16507 26.8267 20.0751 24.0987 23.9301 20.7897Z" fill="#8A5611" stroke="black" stroke-width="2.88236"/>
<path id="Vector_26" transform="matrix(0.99635 0.085366 -0.098974 0.99509 79.8708 277.578)" d="M2.12624 5.9936C3.30053 5.9936 4.25248 4.65189 4.25248 2.9968C4.25248 1.34171 3.30053 0 2.12624 0C0.95195 0 0 1.34171 0 2.9968C0 4.65189 0.95195 5.9936 2.12624 5.9936Z" fill="black"/>
<g id="Group" transform="translate(144.167 281.608)">
<path id="Vector_27" d="M0.584369 5.39365C0.666369 2.67365 2.89236 0.479648 5.61536 0.436648L33.4884 0.000643775C36.3374 -0.0443562 38.6254 2.27562 38.5394 5.12262L37.9804 23.7257C37.9004 26.3917 35.7574 28.5626 33.0904 28.6786L5.19336 29.8937C2.29036 30.0196 -0.0856317 27.6776 0.0023683 24.7756L0.584369 5.39365Z" fill="#D1D3D2"/>
<path id="Vector_28" transform="translate(1.00754 1.00812)" d="M32.4828 0.00051502C34.7618 -0.035485 36.5918 1.8205 36.5238 4.0975L35.9648 22.7015C35.9008 24.8335 34.1858 26.5705 32.0528 26.6635L4.15583 27.8775C1.83383 27.9785 -0.067179 26.1055 0.00182096 23.7845L0.584829 4.40152C0.649829 2.22552 2.43183 0.47152 4.60883 0.43652L32.4828 0.00051502Z" stroke="black" stroke-width="2.01659"/>
</g>
<g id="Group_2" transform="translate(151.093 287.333)">
<path id="Vector_29" d="M0.373379 3.01903C0.421379 1.40103 1.75538 0.100024 3.37538 0.0920242L22.5584 4.42521e-05C24.2274 -0.00895575 25.5584 1.35603 25.5084 3.02403L25.1524 14.892C25.1044 16.48 23.8174 17.768 22.2284 17.818L3.03038 18.4191C1.33038 18.472 -0.0496304 17.095 0.00136955 15.396L0.373379 3.01903Z" fill="#8A5611"/>
<path id="Vector_30" transform="translate(0.992462 0.992004)" d="M21.5569 2.95014e-05C22.6699 -0.0059705 23.5579 0.904021 23.5239 2.01602L23.1679 13.884C23.1359 14.943 22.2769 15.801 21.2179 15.834L2.01991 16.435C0.88691 16.471 -0.033087 15.553 0.000913045 14.421L0.372907 2.04303C0.404907 0.964029 1.29491 0.0970095 2.37391 0.0920095L21.5569 2.95014e-05Z" stroke="black" stroke-width="1.98455"/>
</g>
</g>
</g>
<defs>
<clipPath id="clip0_2339_4268">
<rect width="322" height="452" fill="white"/>
</clipPath>
</defs>
</svg>
